<svg xmlns="http://www.w3.org/2000/svg" width="478.337" height="386.653" viewBox="0 0 478.337 386.653">
  <title>Asset 5</title>
  <g>
    <g>
      <path d="M0,177.808V385.451c80.357,2.01,160.8.574,241.071-3.628q.128-87.134.173-174.165c.021-14.31-.015-28.963-4.889-42.417-32.183-25.027-43.475-71.19-68.133-103.656C152.781,41.254,132.32,23.9,123.345,0,90.269,38.771,56.814,77.658,29.506,120.687c-5.895,9.289-11.553,18.725-17.21,28.16C5.894,159.524,6.4,167.131,0,177.808Z" fill="#e6e6e6"/>
      <path d="M237.091,178.113V385.756c80.357,2.01,160.8.573,241.072-3.628q.127-87.135.172-174.165c.021-14.31-.015-28.963-4.889-42.418-32.183-25.026-43.475-71.189-68.132-103.656-15.441-20.331-35.9-37.684-44.878-61.584C327.36,39.076,293.9,77.963,266.6,120.992c-5.895,9.288-11.553,18.724-17.21,28.159C242.985,159.829,243.494,167.435,237.091,178.113Z" fill="#e6e6e6"/>
    </g>
    <g>
      <path d="M29.969,151.277,31.3,148.75l7.483,3.946a5.351,5.351,0,0,1-.174-5.433c1.545-2.928,4.8-3.579,7.952-1.915l1.626.857c3.128,1.65,4.439,4.8,2.908,7.708a4.7,4.7,0,0,1-2.188,2.268,8.9,8.9,0,0,1-2.534.742l2.033,1.361-1.122,2.127Zm9.919.722a4.209,4.209,0,0,0,2.136,2.438l1.227.647a4.119,4.119,0,0,0,3.218.386,3.618,3.618,0,0,0,2.292-1.8c1.042-1.977.06-3.934-1.967-5l-1.452-.765c-2.076-1.095-4.2-.775-5.239,1.2A3.651,3.651,0,0,0,39.888,152Z"/>
      <path d="M57.08,133.765a3.972,3.972,0,0,1,2.009,2.9,6.619,6.619,0,0,1-.961,4.452c-2.177,3.9-5.592,4.4-8.953,2.521l-.79-.441c-3.384-1.888-4.76-5.343-2.8-8.851,2.053-3.681,5.485-3.969,8.746-2.151l1.012.565-4.8,8.6.173.1c2.076,1.157,4.087.919,5.424-1.478,1.088-1.951.676-3.477-.387-4.069l-.048-.028,1.226-2.2ZM49.1,140.521l3.472-6.226c-2.042-1.042-3.872-.9-5.029,1.179C46.441,137.45,47.106,139.278,49.1,140.521Z"/>
      <path d="M46.077,123.429l1.555-2.694,2.328,1.344L48.4,124.772ZM50.762,126l1.443-2.5,11.657,6.733-1.443,2.5Z"/>
      <path d="M54.5,119.534l1.23-2.065,2.439,1.157a5.818,5.818,0,0,1,.031-5.907c1.4-2.356,3.843-2.911,6.272-1.463l7.846,4.677-1.477,2.478-7.458-4.446a2.5,2.5,0,0,0-3.741.864,3.793,3.793,0,0,0,1.081,5.09l6.8,4.055-1.462,2.453Z"/>
      <path d="M81.333,110.117c-2.438,3.946-4.527,5.283-6.139,4.287-1.059-.654-1.2-1.936-.4-3.934l-.047-.03c-1.114.941-2.124,1.447-3.015.9-.866-.535-.914-1.7-.584-3.253a4.068,4.068,0,0,1-4.4-.027l-.313-.193c-2.309-1.427-2.577-4.385-.779-7.3a6.859,6.859,0,0,1,1.463-1.723,3.68,3.68,0,0,0,.413-2.337,2.5,2.5,0,0,0-1.11-1.218l1.1-1.78a3.06,3.06,0,0,1,1.058.387c1.178.728,1.152,2.008.24,3.971a3.757,3.757,0,0,1,3.844.18l.264.164c2.286,1.411,2.619,4.21.717,7.29a10.211,10.211,0,0,1-1.361,1.719c-.306,1.141-.132,1.614.156,1.792.6.372,1.762-.807,2.906-2.66l.253-.409c2.482-4.018,4.534-4.812,6.363-3.682C83.863,103.436,83.711,106.267,81.333,110.117Zm-9.807-9.58-.457-.283c-1.275-.787-2.731-.423-3.786,1.285-1.07,1.733-.753,3.159.521,3.946l.458.282c1.276.788,2.715.448,3.785-1.285C73.1,102.774,72.8,101.324,71.526,100.537Zm9.393,4.006c-.842-.52-1.98.406-3.584,3l-.223.361c-1.427,2.31-1.572,3.783-.8,4.258.8.491,2-.391,3.61-2.99C81.464,106.675,81.786,105.078,80.919,104.543Z"/>
      <path d="M92.694,92.1c-2.505,3.9-4.616,5.2-6.211,4.181-1.047-.672-1.164-1.957-.327-3.941l-.048-.03c-1.13.922-2.148,1.41-3.029.845-.858-.55-.885-1.71-.529-3.262a4.067,4.067,0,0,1-4.4-.1l-.31-.2c-2.285-1.466-2.5-4.428-.654-7.308a6.888,6.888,0,0,1,1.493-1.7,3.691,3.691,0,0,0,.453-2.33,2.508,2.508,0,0,0-1.088-1.236l1.13-1.762a3.069,3.069,0,0,1,1.05.406c1.167.748,1.118,2.028.172,3.974a3.759,3.759,0,0,1,3.841.247l.262.168c2.261,1.451,2.546,4.255.59,7.3a10.17,10.17,0,0,1-1.39,1.7c-.325,1.136-.16,1.611.126,1.794.6.382,1.775-.776,2.951-2.609l.26-.4c2.551-3.976,4.616-4.734,6.426-3.573C95.339,85.46,95.138,88.288,92.694,92.1Zm-9.64-9.747-.452-.291c-1.262-.809-2.723-.47-3.808,1.22-1.1,1.714-.807,3.145.455,3.954l.452.29c1.261.81,2.707.495,3.806-1.219C84.592,84.612,84.316,83.158,83.054,82.349Zm9.323,4.167c-.833-.535-1.986.372-3.636,2.943l-.229.357c-1.467,2.285-1.636,3.755-.875,4.244.785.5,2.01-.357,3.659-2.928C92.885,88.657,93.234,87.066,92.377,86.516Z"/>
      <path d="M89.6,66.146a6.65,6.65,0,0,1,4.984,1.162l.948.619a6.214,6.214,0,0,1,1.92,9.06,6.515,6.515,0,0,1-4.091,3A6.334,6.334,0,0,1,88.4,78.907l-.971-.634a6.512,6.512,0,0,1-3.036-4.146A7.181,7.181,0,0,1,89.6,66.146Zm-.893,9.588,1.446.944a3.65,3.65,0,0,0,5.381-.944c1.222-1.871.677-3.985-1.313-5.284l-1.444-.944c-1.966-1.284-4.129-1.076-5.413.89S86.747,74.45,88.711,75.734Z"/>
      <path d="M98.268,53.029a6.661,6.661,0,0,1,4.979,1.191l.943.625a6.213,6.213,0,0,1,1.867,9.07,6.508,6.508,0,0,1-4.108,2.98,6.331,6.331,0,0,1-4.962-1.112l-.968-.641a6.506,6.506,0,0,1-3.011-4.163,7.179,7.179,0,0,1,5.26-7.95Zm-.947,9.583,1.438.952a3.651,3.651,0,0,0,5.387-.913c1.233-1.863.7-3.98-1.281-5.291l-1.439-.952c-1.958-1.3-4.123-1.1-5.419.858S95.363,61.316,97.321,62.612Z"/>
      <path d="M100.109,36.729l1.583-2.378L117.985,45.2l-1.348,2.024-2.3-1.292a5.587,5.587,0,0,1-.285,5.789A4.823,4.823,0,0,1,110.429,54a6.573,6.573,0,0,1-4.51-1.236l-1.46-.972a6.666,6.666,0,0,1-2.89-3.724,4.89,4.89,0,0,1,.742-4.229,5.5,5.5,0,0,1,4.7-2.513Zm5.948,12.758,1.365.909c1.955,1.3,4.1,1.2,5.334-.663a3.632,3.632,0,0,0,.5-2.895,4.071,4.071,0,0,0-1.869-2.6l-1.177-.784a4.185,4.185,0,0,0-3.146-.735,3.711,3.711,0,0,0-2.454,1.594C103.372,46.171,104.1,48.187,106.057,49.487Z"/>
    </g>
    <g>
      <path d="M326.656,345.538h2.4l.255,2.687a5.819,5.819,0,0,1,5.092-3c2.744,0,4.47,1.811,4.47,4.64V359h-2.886v-8.684a2.5,2.5,0,0,0-2.659-2.773,3.8,3.8,0,0,0-3.82,3.536V359h-2.856Z"/>
      <path d="M354.716,354.9a3.973,3.973,0,0,1-1.556,3.168,6.622,6.622,0,0,1-4.357,1.33c-4.469,0-6.562-2.744-6.562-6.592v-.9c0-3.876,2.347-6.762,6.365-6.762,4.215,0,6.139,2.857,6.139,6.592v1.16H344.9v.2c0,2.376,1.187,4.017,3.932,4.017,2.235,0,3.367-1.1,3.367-2.32v-.056h2.517Zm-9.788-3.678h7.129c-.085-2.292-1.1-3.819-3.479-3.819C346.314,347.405,345.041,348.875,344.928,351.224Z"/>
      <path d="M358.165,340.191h3.111v2.687h-3.111Zm.113,5.347h2.885V359h-2.885Z"/>
      <path d="M371.148,363.643c-4.639,0-6.874-1.075-6.874-2.971,0-1.244,1.019-2.037,3.141-2.4v-.057c-1.387-.453-2.349-1.047-2.349-2.093,0-1.019.962-1.669,2.461-2.206a4.071,4.071,0,0,1-2.291-3.763v-.368c0-2.716,2.376-4.5,5.8-4.5a6.87,6.87,0,0,1,2.234.339,3.7,3.7,0,0,0,2.207-.876,2.513,2.513,0,0,0,.452-1.585h2.094a3.069,3.069,0,0,1,.227,1.1c0,1.387-1.1,2.037-3.254,2.292a3.759,3.759,0,0,1,1.867,3.366v.312c0,2.687-2.206,4.441-5.827,4.441a10.187,10.187,0,0,1-2.179-.255c-1.132.34-1.442.736-1.442,1.076,0,.707,1.612,1.075,3.79,1.075h.481c4.725,0,6.479,1.329,6.479,3.479C378.165,362.285,375.674,363.643,371.148,363.643Zm4.526-3.281c0-.991-1.385-1.472-4.441-1.472h-.424c-2.716,0-4.046.65-4.046,1.556,0,.933,1.387,1.5,4.442,1.5C374.147,361.946,375.674,361.379,375.674,360.362Zm-1.527-10.1v-.538c0-1.5-1.075-2.546-3.083-2.546-2.037,0-3.084,1.019-3.084,2.518v.538c0,1.5,1.047,2.546,3.084,2.546C373.072,352.78,374.147,351.761,374.147,350.262Z"/>
      <path d="M381.018,339.427h2.857v8.515a5.641,5.641,0,0,1,4.894-2.716c2.744,0,4.47,1.811,4.47,4.64V359h-2.886v-8.684a2.5,2.5,0,0,0-2.659-2.773,3.794,3.794,0,0,0-3.819,3.536V359h-2.857Z"/>
      <path d="M397.48,339.427h2.856v8.458a5.353,5.353,0,0,1,4.725-2.687c3.311,0,5.4,2.574,5.4,6.138v1.839c0,3.537-2.177,6.168-5.46,6.168a4.7,4.7,0,0,1-3.026-.877,8.92,8.92,0,0,1-1.839-1.895L399.884,359h-2.4Zm3.988,9.11a4.21,4.21,0,0,0-1.16,3.026v1.387a4.119,4.119,0,0,0,1.16,3.026,3.618,3.618,0,0,0,2.66,1.188c2.235,0,3.507-1.782,3.507-4.073V351.45c0-2.348-1.272-4.074-3.507-4.074A3.646,3.646,0,0,0,401.468,348.537Z"/>
      <path d="M424.465,346.923a6.655,6.655,0,0,1,1.754,4.81v1.132a6.213,6.213,0,0,1-6.535,6.563,6.513,6.513,0,0,1-4.752-1.783,6.328,6.328,0,0,1-1.81-4.752v-1.16a6.506,6.506,0,0,1,1.81-4.81,7.181,7.181,0,0,1,9.533,0Zm-8.515,4.5v1.726a3.65,3.65,0,0,0,3.734,3.989c2.235,0,3.706-1.612,3.706-3.989v-1.726c0-2.347-1.357-4.045-3.706-4.045S415.95,349.074,415.95,351.421Z"/>
      <path d="M429.725,345.538h2.4l.227,3.309c.82-1.924,2.263-3.508,4.64-3.508.423,0,.763.057,1.131.085V348.2a5.636,5.636,0,0,0-1.273-.142,4.28,4.28,0,0,0-3.027,1.132,3.589,3.589,0,0,0-1.245,2.687V359h-2.857Z"/>
      <path d="M439.653,354.817v-.425h2.461v.283c0,1.5,1.132,2.6,3.508,2.6,1.923,0,3.027-.792,3.027-1.952,0-1.047-.736-1.556-3.536-2.094-3.537-.594-5.178-1.669-5.178-3.96,0-2.264,2.037-4.1,5.517-4.1,3.649,0,5.6,1.783,5.6,4.357v.311h-2.461v-.17c0-1.47-1.131-2.4-3.2-2.4-1.7,0-2.857.792-2.857,1.839s.933,1.556,3.536,2.037c3.621.594,5.234,1.641,5.234,4.045,0,2.377-2.094,4.216-5.743,4.216C441.463,359.4,439.653,357.419,439.653,354.817Z"/>
    </g>
  </g>
</svg>
