<svg xmlns="http://www.w3.org/2000/svg" width="537.82" height="440.583" viewBox="0 0 537.82 440.583">
  <title>Asset 17</title>
  <path d="M12.032,320.5c16.277-24.188,45.465-36.141,65.822-57.011,46.54-47.713,38.588-131.439,86.451-177.825,33.571-32.536,86.231-37.927,121.386-68.746C292.053,11.344,298,4.841,305.913,1.852c20.689-7.815,40.939,11.236,62.122,17.59,12.178,3.653,25.179,3.018,37.777,4.726,43,5.828,78.346,39.053,98.259,77.609S531.037,184.035,537.82,226.9c-29.054,20.913-58.2,41.9-84.309,66.4-17.378,16.3-33.425,34.173-52.576,48.353-22.275,16.494-48.051,27.486-73.56,38.327-86.658,36.83-145.293,78.561-238.522,52.457C22.105,413.739-22.634,372.021,12.032,320.5Z" fill="#f7931e"/>
</svg>
