<svg xmlns="http://www.w3.org/2000/svg" width="512.209" height="374.512" viewBox="0 0 512.209 374.512">
  <title>Asset 13</title>
  <path d="M144.124,121.406c-17.193,3.464-34.923.374-52.436-.566s-36.456.791-49.943,12c-9.188,7.638-14.692,18.758-19.258,29.8A297.873,297.873,0,0,0,0,269.933a170.82,170.82,0,0,0,75.265,11.891c-1.991,17.729-2.845,36.823,5.189,52.752,9.486,18.808,30.812,28.992,51.663,31.987a81.1,81.1,0,0,0,25.013.062,62.8,62.8,0,0,0,48.289-84.057c26.8.177,55.846-.616,82.648-.439a180.953,180.953,0,0,0-8.949,58.005c.052,5.109.385,10.442,2.948,14.861,4.372,7.538,13.745,10.247,22.212,12.306,16.968,4.126,34.278,8.282,51.69,6.962s35.261-9.052,44.426-23.915c4.646-7.536,6.769-16.328,8.471-25.016a328.524,328.524,0,0,0,5.935-51.9c22.246.072,44.23.114,66.476.186,7.433.024,15.436-.128,21.427-4.528,8.456-6.21,9.616-18.228,9.5-28.718-.2-17.4-1.831-34.756-3.629-52.067-1.579-15.209-3.335-30.616-8.955-44.837s-15.638-27.346-29.668-33.427c-10.151-4.4-21.514-4.821-32.572-5.176l-86.251-2.773c.1-20.762-5.456-41.155-5.358-61.917.024-5.168.021-10.487-1.9-15.284-1.887-4.707-5.5-8.546-9.551-11.6C318.729,1.558,297.725.914,278.213.75L189.932.008c-8.588-.072-18.169.241-24.239,6.316-4.723,4.728-6.058,11.775-7.106,18.375C153.336,57.79,146.229,87.967,144.124,121.406Z" fill="#d060bb"/>
</svg>
