<svg xmlns="http://www.w3.org/2000/svg" width="512.209" height="374.512" viewBox="0 0 512.209 374.512">
  <title>Asset 23</title>
  <g>
    <path d="M198.833,121.406c-17.193,3.464-34.923.374-52.437-.566s-36.456.791-49.942,12c-9.188,7.638-14.692,18.758-19.259,29.8A297.893,297.893,0,0,0,54.709,269.933a170.815,170.815,0,0,0,75.264,11.891c-1.99,17.729-2.844,36.823,5.19,52.752,9.486,18.808,30.812,28.992,51.663,31.987a81.1,81.1,0,0,0,25.013.062,62.8,62.8,0,0,0,48.289-84.057c26.8.177,55.845-.616,82.648-.439a180.953,180.953,0,0,0-8.949,58.005c.052,5.109.384,10.442,2.948,14.861,4.372,7.538,13.745,10.247,22.212,12.306,16.967,4.126,34.277,8.282,51.689,6.962s35.262-9.052,44.426-23.915c4.647-7.536,6.77-16.328,8.472-25.016a328.642,328.642,0,0,0,5.935-51.9c22.246.072,44.23.114,66.476.186,7.433.024,15.436-.128,21.427-4.528,8.456-6.21,9.616-18.228,9.5-28.718-.2-17.4-1.832-34.756-3.629-52.067-1.579-15.209-3.335-30.616-8.955-44.837s-15.639-27.346-29.668-33.427c-10.151-4.4-21.515-4.821-32.572-5.176l-86.252-2.773c.1-20.762-5.455-41.155-5.357-61.917.024-5.168.021-10.487-1.9-15.284-1.886-4.707-5.5-8.546-9.55-11.6C373.437,1.558,352.433.914,332.921.75L244.64.008c-8.587-.072-18.169.241-24.238,6.316C215.679,11.052,214.343,18.1,213.3,24.7,208.045,57.79,200.938,87.967,198.833,121.406Z" transform="translate(-54.709)" fill="#d060bb"/>
    <g>
      <path d="M117.93,148.736l0-.028,2.579-.351.037.277c.343,2.521-1.283,5.087-5,5.593-4.076.555-6.672-1.717-7.219-5.736l-.1-.748c-.543-3.991,1.482-6.949,5.447-7.489,3.685-.5,5.931,1.478,6.282,4.056l.041.3-2.576.352-.009-.056a2.77,2.77,0,0,0-3.461-2.407c-2.356.32-3.345,2.178-3,4.7l.147,1.081c.344,2.523,1.789,4.02,4.12,3.7A2.794,2.794,0,0,0,117.93,148.736Z" transform="translate(-54.709)"/>
      <path d="M127.352,152.772c-2.482.181-4.055-1.022-4.22-3.252a3.4,3.4,0,0,1,1.876-3.474c1.209-.733,3.3-1.335,6.654-1.806l-.059-.808c-.126-1.7-1.061-2.613-3.042-2.469-1.868.137-2.864,1.079-2.757,2.557l.014.168-2.538.185-.02-.251c-.178-2.454,1.4-4.644,5.219-4.924,3.71-.271,5.633,1.494,5.861,4.618l.385,5.243c.1,1.366.455,1.62,1.712,1.556l.133,1.813-1.031.076c-1.868.137-2.966-.288-3.364-2.277A5.777,5.777,0,0,1,127.352,152.772Zm.749-2.018c2.093-.153,3.9-1.939,3.774-3.613l-.1-1.366a15.106,15.106,0,0,0-4.785,1.275,1.964,1.964,0,0,0-1.14,2.046C125.93,150.211,126.651,150.86,128.1,150.754Z" transform="translate(-54.709)"/>
      <path d="M138.975,138.549l2.376-.008.235,3.272c.8-1.905,2.226-3.475,4.576-3.483.42,0,.755.054,1.119.08l.009,2.742a5.544,5.544,0,0,0-1.26-.136,4.235,4.235,0,0,0-2.989,1.128,3.553,3.553,0,0,0-1.221,2.661l.022,7.047-2.824.009Z" transform="translate(-54.709)"/>
    </g>
    <g>
      <path d="M466.525,129.887l2.889-.352,4.252,9.684.055-.007,1.912-10.434,2.611-.319,4.419,9.663.055-.007,1.8-10.42,2.723-.332-2.823,13.842-2.581.316s-.232-.508-.721-1.519c-.487-.983-.985-2.078-1.556-3.277-.565-1.171-1.064-2.266-1.527-3.28-.486-.984-.717-1.491-.717-1.491l-.057.006-2.06,10.369-2.582.316Z" transform="translate(-54.709)"/>
      <path d="M494.266,140.722c-2.487.087-4.015-1.174-4.1-3.411a3.4,3.4,0,0,1,2.007-3.4c1.237-.686,3.345-1.209,6.72-1.551l-.029-.811c-.06-1.7-.962-2.653-2.946-2.584-1.874.066-2.905.971-2.853,2.452l.006.167-2.543.09-.01-.251c-.086-2.46,1.574-4.59,5.4-4.725,3.718-.13,5.575,1.708,5.685,4.837l.185,5.256c.048,1.37.394,1.638,1.653,1.621l.064,1.818-1.034.036c-1.874.066-2.953-.4-3.276-2.4A5.782,5.782,0,0,1,494.266,140.722Zm.824-1.989c2.1-.074,3.969-1.791,3.91-3.468l-.048-1.37a15.114,15.114,0,0,0-4.832,1.093,1.967,1.967,0,0,0-1.217,2C492.943,138.11,493.638,138.784,495.09,138.733Z" transform="translate(-54.709)"/>
      <path d="M505.175,136.052l.022-.419,2.431.126-.015.278c-.077,1.482.984,2.629,3.331,2.75,1.9.1,3.028-.627,3.088-1.772.054-1.033-.647-1.574-3.384-2.248-3.462-.768-5.027-1.913-4.91-4.176.115-2.235,2.221-3.946,5.658-3.768,3.6.187,5.439,2.046,5.308,4.588l-.017.308-2.43-.126.009-.168c.074-1.452-.994-2.433-3.033-2.538-1.677-.087-2.863.636-2.916,1.67s.842,1.584,3.387,2.191c3.545.773,5.084,1.889,4.962,4.263-.122,2.347-2.284,4.056-5.887,3.869C506.729,140.67,505.043,138.622,505.175,136.052Z" transform="translate(-54.709)"/>
      <path d="M522.507,121.956l2.79.453-1.351,8.312a5.578,5.578,0,0,1,5.208-1.875c2.679.434,4.076,2.475,3.628,5.237L531.334,143l-2.818-.458,1.378-8.477a2.471,2.471,0,0,0-2.157-3.127,3.751,3.751,0,0,0-4.288,2.846l-1.255,7.732-2.79-.453Z" transform="translate(-54.709)"/>
    </g>
  </g>
</svg>
