<svg xmlns="http://www.w3.org/2000/svg" width="433.855" height="378.052" viewBox="0 0 433.855 378.052">
  <title>Asset 8</title>
  <g>
    <path d="M253.561,9.96c52.633-25.594,120.638.723,153.03,49.467s33.577,113.239,15.82,169.006c-18.2,57.165-57.15,109.7-111.99,134.021-70.574,31.305-154.023,11.508-222.453-24.24-12.73-6.65-25.4-14-35.119-24.575-10.926-11.892-17.437-27.118-22.937-42.3C8.27,211.572-30.954,72.576,43.143,32.283c26.785-14.565,60.929-6.1,88.775-.054C187.706,44.334,204.239,33.943,253.561,9.96Z" fill="#f15a24"/>
    <g>
      <path d="M161.423,64.261l-.113,2.147-1.187-.063c-1.949-.1-2.7.678-2.777,2.147l-.088,1.667,3.729.2-.115,2.175-3.729-.2-.6,11.271-2.824-.149.6-11.273-2.515-.132.116-2.175,2.513.134.093-1.751c.143-2.685,1.7-4.273,5.2-4.088Z"/>
      <path d="M166.992,84.032c-2.516.093-4.063-1.182-4.146-3.443a3.442,3.442,0,0,1,2.026-3.443c1.248-.7,3.381-1.228,6.794-1.579l-.031-.82c-.063-1.725-.975-2.682-2.983-2.609-1.894.07-2.937.986-2.882,2.484l.007.17-2.573.094-.009-.254c-.091-2.49,1.586-4.646,5.458-4.786,3.761-.138,5.641,1.718,5.756,4.885l.194,5.315c.051,1.384.4,1.655,1.674,1.637l.066,1.837-1.046.039c-1.893.069-2.987-.4-3.315-2.426A5.845,5.845,0,0,1,166.992,84.032Zm.832-2.012c2.121-.077,4.011-1.816,3.949-3.512l-.052-1.387a15.286,15.286,0,0,0-4.885,1.113,1.989,1.989,0,0,0-1.227,2.027C165.65,81.391,166.355,82.074,167.824,82.02Z"/>
      <path d="M178.457,69.512l2.372-.394.764,3.228c.494-2.032,1.66-3.83,4-4.218.419-.07.764-.07,1.131-.1l.453,2.736a5.6,5.6,0,0,0-1.279.068,4.287,4.287,0,0,0-2.8,1.611,3.6,3.6,0,0,0-.789,2.855l1.166,7.034-2.819.466Z"/>
      <path d="M196.468,79.617l-2.7.938-4.425-12.714,2.271-.789,1.114,2.426c.563-2.082,1.535-3.677,3.7-4.43a3.972,3.972,0,0,1,4.731,1.287,5.919,5.919,0,0,1,3.79-4.252c2.564-.894,4.725.24,5.645,2.886l3.022,8.68-2.7.938-2.873-8.253c-.529-1.523-1.667-2.294-3.269-1.737a3.684,3.684,0,0,0-2.347,4.531l2.613,7.5-2.7.939-2.873-8.254c-.529-1.522-1.667-2.3-3.268-1.737a3.682,3.682,0,0,0-2.347,4.529Z"/>
      <path d="M217.19,56.952l2.185-1.07-1.269-2.59,2.241-1.918,1.594,3.252,3.785-1.855.957,1.956L222.9,56.582l2.861,5.842c.884,1.8,1.717,2.089,3.445,1.243l.787-.385.946,1.929-1.423.7c-2.871,1.4-4.8.871-6.108-1.8l-3.074-6.274-2.185,1.07Z"/>
      <path d="M237.9,48.057a6.658,6.658,0,0,1,3.762,3.471l.518,1.007a6.21,6.21,0,0,1-2.8,8.825,6.511,6.511,0,0,1-5.04.593,6.33,6.33,0,0,1-3.786-3.4l-.531-1.03a6.512,6.512,0,0,1-.594-5.1,7.18,7.18,0,0,1,8.474-4.367Zm-5.508,7.9.79,1.534a3.651,3.651,0,0,0,5.146,1.835c1.986-1.024,2.554-3.132,1.466-5.242l-.79-1.533c-1.075-2.088-3.059-2.976-5.146-1.9S231.319,53.868,232.4,55.955Z"/>
      <path d="M252.047,32.564l.945,1.931-1.067.522c-1.753.858-2.027,1.906-1.381,3.226l.733,1.5,3.354-1.641.956,1.955L252.234,41.7l4.959,10.138-2.54,1.242-4.959-10.137-2.261,1.107-.958-1.956,2.262-1.107-.771-1.575c-1.181-2.413-.593-4.559,2.557-6.1Z"/>
      <path d="M267.205,34.024a6.655,6.655,0,0,1,3.525,3.708l.451,1.038a6.211,6.211,0,0,1-3.372,8.622,6.5,6.5,0,0,1-5.067.261,6.33,6.33,0,0,1-3.555-3.634l-.462-1.062a6.505,6.505,0,0,1-.259-5.131,7.182,7.182,0,0,1,8.739-3.8Zm-6.012,7.518.688,1.583a3.649,3.649,0,0,0,5.014,2.166c2.049-.892,2.754-2.956,1.807-5.134l-.689-1.582c-.936-2.151-2.857-3.166-5.01-2.229S260.257,39.391,261.193,41.542Z"/>
      <path d="M272.16,30.609l2.269-.794,1.307,3.049c.14-2.087.978-4.059,3.221-4.843.4-.139.74-.2,1.1-.293l.915,2.617a5.561,5.561,0,0,0-1.248.287,4.276,4.276,0,0,0-2.483,2.068,3.585,3.585,0,0,0-.288,2.946l2.354,6.731-2.7.942Z"/>
      <path d="M282.1,20.825l2.777-.675,3.183,13.113,3.895-8.542,3.133-.762-3.042,6.416,6.549,6.59-3.079.747-4.968-4.994-1.74,3.625.688,2.832-2.778.673Z"/>
    </g>
  </g>
</svg>
