<svg xmlns="http://www.w3.org/2000/svg" width="770.908" height="770.908" viewBox="0 0 770.908 770.908">
  <title>Asset 34</title>
  <g>
    <path d="M454.82,623.176c-17.128-40.829-4.72-88.409,16.427-127.31s50.562-72.931,70.622-112.4c43.509-85.618,35.427-197.818-28.052-269.887s-181.7-92.5-260.64-37.8c-68.852,47.71-96.716,138.165-93.679,221.876.992,27.353,4.98,55.3,18.055,79.343,19.04,35.018,54.651,57.4,81.084,87.232,38.563,43.525,56.735,104.4,48.34,161.943-5.44,37.291,15.586,82.562,51.9,92.653,25.66,7.131,54.3.465,75.49-15.665C456.6,686.231,465.629,648.942,454.82,623.176Z" fill="#fcee21"/>
    <rect width="770.908" height="770.908" fill="none"/>
  </g>
</svg>
