<svg xmlns="http://www.w3.org/2000/svg" width="161.859" height="171.619" viewBox="0 0 161.859 171.619">
  <title>Asset 36</title>
  <g>
    <polygon points="84.392 62.821 100.857 12.2 96.153 66.12 135.892 27.186 104.762 75.134 161.859 66.152 107.914 87.447 154.934 106.93 104.762 99.761 132.578 135.831 96.153 108.774 110.617 171.619 84.392 112.074 63.185 166.739 72.63 108.774 34.622 141.365 64.021 99.761 13.849 105.118 60.869 87.447 0 57.996 64.021 75.134 37.219 37.154 72.63 66.12 58.858 0 84.392 62.821" fill="#fcee21"/>
    <path d="M85.822,92.673l30.341,54.691,13.2-61.17,12.551-1.868,10.257,68.93-8.689,1.293L134.947,97.2l-.193.029-13,60.548-7.819,1.164L83.877,104.8l-.193.029,8.533,57.345-8.689,1.293L73.271,94.54Z" transform="translate(-5.813)"/>
    <path d="M69.123,23.225,68.2,30.979l-38.574-4.59-2.618,22,35.957,4.279-.922,7.754L26.086,56.143l-2.849,23.94L62.1,84.707l-.923,7.754L13.107,86.74l8.235-69.2Z" transform="translate(-5.813)"/>
  </g>
</svg>
