<svg xmlns="http://www.w3.org/2000/svg" width="431.997" height="285.507" viewBox="0 0 431.997 285.507">
  <title>Asset 1</title>
  <g>
    <g>
      <path d="M176.708,220.413a26.944,26.944,0,0,1-10.7,4.057q-6.951,1.035-11.514-.456a18.843,18.843,0,0,1-7.326-4.141,15.979,15.979,0,0,1-3.96-5.725,25.008,25.008,0,0,1-1.515-5.2,18.45,18.45,0,0,1,.241-7.338,20.385,20.385,0,0,1,2.649-6.068,26.68,26.68,0,0,1,4.456-5.2,70.055,70.055,0,0,1,5.673-4.643q-1.749-1.814-3.374-3.446a43.946,43.946,0,0,1-3.015-3.35A18.24,18.24,0,0,1,146,175.2a16.359,16.359,0,0,1-1.324-4.589,14.562,14.562,0,0,1,.217-5.508,13.435,13.435,0,0,1,2.317-4.984,14.5,14.5,0,0,1,4.409-3.863,18.057,18.057,0,0,1,6.488-2.149,22.827,22.827,0,0,1,6.356-.058,15.932,15.932,0,0,1,5.754,1.859,13.617,13.617,0,0,1,4.378,3.887,13.123,13.123,0,0,1,2.312,5.922,15.492,15.492,0,0,1-.208,5.9,18.477,18.477,0,0,1-2.171,5.306,26.087,26.087,0,0,1-3.554,4.625,44.154,44.154,0,0,1-4.346,3.951l14.709,13.3a38.369,38.369,0,0,0,.626-11.046l7.82-1.163q.169,3.135.155,5.355a33.04,33.04,0,0,1-.273,4.136,30.651,30.651,0,0,1-.765,3.814q-.507,1.9-1.223,4.377l15.732,13.545-10.717,1.594-8.615-7.5A19.316,19.316,0,0,1,176.708,220.413Zm-20.848-26.7a20.12,20.12,0,0,0-3.324,3.849,14.97,14.97,0,0,0-2,4.492,13.752,13.752,0,0,0-.168,5.5,10.46,10.46,0,0,0,1.82,4.613,11.439,11.439,0,0,0,3.491,3.23,14.606,14.606,0,0,0,4.551,1.741,14.155,14.155,0,0,0,5,.142,16.3,16.3,0,0,0,8.116-3.476,19.58,19.58,0,0,0,5.337-6.913l-18.663-16.661Q157.818,191.945,155.86,193.714Zm8.3-15.543a19.66,19.66,0,0,0,2.6-3.052,13.275,13.275,0,0,0,1.739-3.564,9.126,9.126,0,0,0,.272-4.135,7.221,7.221,0,0,0-2.892-4.85,7.815,7.815,0,0,0-6.115-1.309,9.245,9.245,0,0,0-5.141,2.59,6.413,6.413,0,0,0-1.684,5.925,8.222,8.222,0,0,0,1.087,2.995,18.449,18.449,0,0,0,2.045,2.8,35.92,35.92,0,0,0,2.562,2.628l2.748,2.552Q162.687,179.576,164.156,178.171Z" transform="translate(-13.106)"/>
      <path d="M238.814,142.1l30.341,54.692,13.2-61.171,12.55-1.867,10.257,68.93-8.688,1.292-8.534-57.344-.193.029-13,60.548-7.82,1.163L236.87,154.227l-.193.029L245.21,211.6l-8.689,1.293-10.257-68.93Z" transform="translate(-13.106)"/>
      <path d="M312.667,165.6a23.554,23.554,0,0,1,3.4-8.992,22.079,22.079,0,0,1,6.8-6.686,28.266,28.266,0,0,1,20.9-3.11,22.183,22.183,0,0,1,8.4,4.423,23.568,23.568,0,0,1,5.87,7.614,33.65,33.65,0,0,1,3.075,10.051,33.187,33.187,0,0,1-.022,10.463,23.631,23.631,0,0,1-3.406,8.944,21.639,21.639,0,0,1-6.76,6.631,28.918,28.918,0,0,1-20.9,3.11,21.5,21.5,0,0,1-8.445-4.368,23.587,23.587,0,0,1-5.862-7.565,33.12,33.12,0,0,1-3.068-10A33.593,33.593,0,0,1,312.667,165.6Zm11.08,17.1a17.028,17.028,0,0,0,4.207,5.394,14.588,14.588,0,0,0,5.511,2.88,15.3,15.3,0,0,0,12.067-1.8,14.59,14.59,0,0,0,4.433-4.36,17.053,17.053,0,0,0,2.455-6.385,27.832,27.832,0,0,0-2.4-16.121,17.613,17.613,0,0,0-4.215-5.442,14.359,14.359,0,0,0-5.517-2.929,15.3,15.3,0,0,0-12.068,1.795,14.354,14.354,0,0,0-4.426,4.409,17.582,17.582,0,0,0-2.447,6.433,27.837,27.837,0,0,0,2.4,16.122Z" transform="translate(-13.106)"/>
      <path d="M374.481,141.348l1.566,10.523.193-.029a22.454,22.454,0,0,1,6-10.069q3.913-3.544,10.6-4.341l1.293,8.688a23.5,23.5,0,0,0-8.2,2.6,13.386,13.386,0,0,0-5.01,4.791,16.545,16.545,0,0,0-2.149,6.783,34.444,34.444,0,0,0,.306,8.688l3.305,22.2-8.206,1.221L366.758,142.5Z" transform="translate(-13.106)"/>
      <path d="M439.745,179.4q-4.968,5.084-13.463,6.344a25.875,25.875,0,0,1-10.666-.386,20.655,20.655,0,0,1-8.189-4.306,23.2,23.2,0,0,1-5.725-7.635,40.46,40.46,0,0,1-3.255-10.272,30.366,30.366,0,0,1,.186-10.684,25.191,25.191,0,0,1,3.655-8.932,22.357,22.357,0,0,1,6.629-6.512,22.943,22.943,0,0,1,9.125-3.331,20.7,20.7,0,0,1,11.463,1.106,22.119,22.119,0,0,1,8.089,5.95,28.007,28.007,0,0,1,5.048,8.723,40.252,40.252,0,0,1,2.243,9.435l-37.362,5.56a20.061,20.061,0,0,0,1.7,6.112,14.246,14.246,0,0,0,3.576,4.8,13.934,13.934,0,0,0,5.462,2.887,17.161,17.161,0,0,0,7.249.3,14.354,14.354,0,0,0,8.184-3.685,11.794,11.794,0,0,0,3.3-7.99l8.11-1.207Q444.711,174.318,439.745,179.4ZM433,147.641A14.125,14.125,0,0,0,418.637,141a14.452,14.452,0,0,0-5.579,1.965,13.392,13.392,0,0,0-3.94,3.695,14.673,14.673,0,0,0-2.228,4.919,17.285,17.285,0,0,0-.444,5.643l28.673-4.267A17.006,17.006,0,0,0,433,147.641Z" transform="translate(-13.106)"/>
    </g>
    <g>
      <path d="M69.122,30.2,68.2,37.953l-38.574-4.59-2.618,22,35.958,4.278L62.042,67.4,26.084,63.118,23.236,87.057,62.1,91.681l-.923,7.754-48.073-5.72,8.234-69.2Z" transform="translate(-13.106)"/>
      <path d="M72.956,50.019,83.52,51.276l9.93,18.973,14.59-16.055,9.886,1.176-20,21.014L114.1,105.731l-10.564-1.257-11.489-22.4-16.424,19.08-9.982-1.188L87.576,75.841Z" transform="translate(-13.106)"/>
      <path d="M135.661,57.48l-.807,6.785.193.023a12.425,12.425,0,0,1,7.118-5.3,24.048,24.048,0,0,1,9.82-.749,22.766,22.766,0,0,1,9.873,3.338,20.765,20.765,0,0,1,6.487,6.62,25.689,25.689,0,0,1,3.316,8.9,34.509,34.509,0,0,1,.254,10.253,35.648,35.648,0,0,1-2.6,9.912,23.947,23.947,0,0,1-5.251,7.779,20.247,20.247,0,0,1-7.835,4.72,23.427,23.427,0,0,1-10.274.841,25.029,25.029,0,0,1-4.073-.878,23.012,23.012,0,0,1-4.357-1.8,17.659,17.659,0,0,1-3.933-2.876,13.33,13.33,0,0,1-2.9-4.129l-.193-.023-3.067,25.781-8.24-.981,8.234-69.2Zm27.493,21.308a18.609,18.609,0,0,0-2.1-6.3,13.868,13.868,0,0,0-4.351-4.744,14.832,14.832,0,0,0-6.745-2.376,13.694,13.694,0,0,0-12.533,4.554,18.145,18.145,0,0,0-3.386,5.741,29.578,29.578,0,0,0-1.619,14.01,17.785,17.785,0,0,0,2.042,6.386,14.222,14.222,0,0,0,4.394,4.8,15.377,15.377,0,0,0,7.079,2.463,14.174,14.174,0,0,0,7.319-.8,13.322,13.322,0,0,0,5.122-3.814,19.161,19.161,0,0,0,3.259-5.9,33.272,33.272,0,0,0,1.629-7.08A25.9,25.9,0,0,0,163.154,78.788Z" transform="translate(-13.106)"/>
      <path d="M195.6,45.248l-8.234,69.2-8.238-.98,8.234-69.2Z" transform="translate(-13.106)"/>
      <path d="M203.2,80.505a23.505,23.505,0,0,1,5.644-7.781,22.049,22.049,0,0,1,8.319-4.662,28.264,28.264,0,0,1,20.985,2.5,22.214,22.214,0,0,1,6.944,6.479,23.6,23.6,0,0,1,3.661,8.889,33.647,33.647,0,0,1,.322,10.506,33.184,33.184,0,0,1-2.773,10.089,23.651,23.651,0,0,1-5.638,7.733,21.643,21.643,0,0,1-8.265,4.619,28.891,28.891,0,0,1-20.984-2.5,21.505,21.505,0,0,1-7-6.435,23.564,23.564,0,0,1-3.667-8.84,33.1,33.1,0,0,1-.328-10.458A33.584,33.584,0,0,1,203.2,80.505Zm6.191,19.412a17.036,17.036,0,0,0,2.642,6.31,14.556,14.556,0,0,0,4.558,4.228A15.289,15.289,0,0,0,228.7,111.9a14.585,14.585,0,0,0,5.423-3.04,17.1,17.1,0,0,0,4.047-5.514A27.811,27.811,0,0,0,240.1,87.157a17.671,17.671,0,0,0-2.635-6.358,14.367,14.367,0,0,0-4.553-4.277A15.289,15.289,0,0,0,220.8,75.08a14.346,14.346,0,0,0-5.429,3.089,17.61,17.61,0,0,0-4.054,5.563,27.86,27.86,0,0,0-1.926,16.185Z" transform="translate(-13.106)"/>
      <path d="M269.212,73.37l-1.257,10.565.193.023a22.481,22.481,0,0,1,8.439-8.137q4.707-2.389,11.372-1.4l-1.038,8.723a23.482,23.482,0,0,0-8.593.354,13.394,13.394,0,0,0-6.094,3.3,16.532,16.532,0,0,0-3.857,5.979,34.5,34.5,0,0,0-1.99,8.462l-2.653,22.292-8.237-.981,5.962-50.107Z" transform="translate(-13.106)"/>
      <path d="M322.171,127.245q-6.13,3.6-14.658,2.58a25.892,25.892,0,0,1-10.188-3.178,20.656,20.656,0,0,1-6.769-6.309,23.192,23.192,0,0,1-3.515-8.872A40.379,40.379,0,0,1,286.6,100.7a30.419,30.419,0,0,1,2.989-10.259,25.2,25.2,0,0,1,5.875-7.656,22.4,22.4,0,0,1,8.109-4.54,22.956,22.956,0,0,1,9.681-.814,20.71,20.71,0,0,1,10.769,4.083,22.14,22.14,0,0,1,6.239,7.869,28,28,0,0,1,2.575,9.742,40.234,40.234,0,0,1-.318,9.693l-37.508-4.463a20,20,0,0,0,.032,6.344,14.212,14.212,0,0,0,2.187,5.568,13.969,13.969,0,0,0,4.511,4.223,17.168,17.168,0,0,0,6.913,2.2,14.361,14.361,0,0,0,8.866-1.4,11.8,11.8,0,0,0,5.286-6.841l8.143.968Q328.3,123.649,322.171,127.245Zm1.841-32.414a14.2,14.2,0,0,0-2.469-4.864,14.376,14.376,0,0,0-4.1-3.535,14.208,14.208,0,0,0-5.538-1.79,14.48,14.48,0,0,0-5.9.429,13.421,13.421,0,0,0-4.772,2.528,14.731,14.731,0,0,0-3.444,4.162,17.233,17.233,0,0,0-1.912,5.325l28.785,3.425A17.022,17.022,0,0,0,324.012,94.831Z" transform="translate(-13.106)"/>
    </g>
    <polygon points="211.137 62.821 227.602 12.2 222.898 66.12 262.637 27.186 231.507 75.134 288.604 66.152 234.659 87.447 281.679 106.93 231.507 99.761 259.323 135.831 222.898 108.774 237.362 171.619 211.137 112.074 189.93 166.739 199.375 108.774 161.367 141.365 190.766 99.761 140.594 105.118 187.614 87.447 126.745 57.996 190.766 75.134 163.964 37.154 199.375 66.12 185.603 0 211.137 62.821" fill="#fcee21"/>
    <g>
      <path d="M147.782,246.814l11.931-1.991.372,2.229-4.686.782,2.088,12.51-2.581.431-2.088-12.51-4.664.778Z" transform="translate(-13.106)"/>
      <path d="M161.365,244.547l2.58-.431.978,5.863,6.709-1.119L170.654,243l2.58-.43,2.459,14.739-2.58.431L172,251.089l-6.709,1.119,1.109,6.648-2.58.43Z" transform="translate(-13.106)"/>
      <path d="M176.33,242.05l10.61-1.771.372,2.23-8.03,1.34.644,3.86,7.432-1.24.351,2.105-7.431,1.241.72,4.314,8.174-1.364.372,2.229-10.755,1.795Z" transform="translate(-13.106)"/>
      <path d="M195.073,238.922l7.039-1.175a5.537,5.537,0,0,1,3.829.443,3.721,3.721,0,0,1,1.707,2.729,4.334,4.334,0,0,1-.018,1.8,3.884,3.884,0,0,1-.536,1.234,2.866,2.866,0,0,1-.714.746c-.248.169-.431.283-.547.345l.006.042a2.663,2.663,0,0,1,.747.087,2.147,2.147,0,0,1,.8.408,2.932,2.932,0,0,1,.7.848,4.21,4.21,0,0,1,.458,1.408,13.126,13.126,0,0,0,.591,2.332,3.161,3.161,0,0,0,.861,1.416l-2.766.461a2.443,2.443,0,0,1-.516-1c-.1-.379-.177-.747-.238-1.1a10.64,10.64,0,0,0-.415-1.724,3.084,3.084,0,0,0-.657-1.142,1.958,1.958,0,0,0-1.017-.563,4.019,4.019,0,0,0-1.493.017l-3.8.633,1.013,6.07-2.581.43Zm3.7,6.278,4.231-.706a2.727,2.727,0,0,0,1.781-.9,2.315,2.315,0,0,0,.345-1.872,2.781,2.781,0,0,0-.4-1.111,1.676,1.676,0,0,0-.684-.6,2.107,2.107,0,0,0-.88-.193,5.7,5.7,0,0,0-.974.078l-4.19.7Z" transform="translate(-13.106)"/>
      <path d="M213.548,235.839l2.745-.458,8.136,13.792-2.766.462-2.034-3.671-5.882.982-.733,4.132-2.663.444Zm.573,9.028,4.5-.751-3.266-5.969-.061.01Z" transform="translate(-13.106)"/>
      <path d="M223.374,234.2l2.58-.43,2.088,12.51,7.492-1.251.372,2.23-10.073,1.681Z" transform="translate(-13.106)"/>
      <path d="M235.222,232.222l6.5-1.085a6.253,6.253,0,0,1,2.636.027,4.109,4.109,0,0,1,1.717.881,3.9,3.9,0,0,1,.981,1.364,6.381,6.381,0,0,1,.443,1.454,6.266,6.266,0,0,1,.051,1.508,3.93,3.93,0,0,1-.487,1.6,4,4,0,0,1-1.339,1.379,6.377,6.377,0,0,1-2.486.872l-3.922.654.944,5.657-2.581.43Zm3.744,6.546,3.778-.631a3.365,3.365,0,0,0,.867-.271,2.585,2.585,0,0,0,.769-.542,2.084,2.084,0,0,0,.5-.847,2.59,2.59,0,0,0,.043-1.205,3.048,3.048,0,0,0-.406-1.162,1.938,1.938,0,0,0-.683-.662,2.022,2.022,0,0,0-.869-.247,4.407,4.407,0,0,0-.987.059l-3.82.637Z" transform="translate(-13.106)"/>
      <path d="M248.928,229.935l2.58-.431.978,5.862,6.709-1.119-.978-5.862,2.58-.431,2.46,14.739-2.58.431-1.11-6.648-6.709,1.12,1.11,6.647-2.58.431Z" transform="translate(-13.106)"/>
      <path d="M280.364,229.506a5.224,5.224,0,0,0-.651-1.1,3.279,3.279,0,0,0-.9-.805,3.34,3.34,0,0,0-1.165-.433,4.3,4.3,0,0,0-1.45.019,4.2,4.2,0,0,0-1.954.815,4.05,4.05,0,0,0-1.182,1.5,5.838,5.838,0,0,0-.493,1.939,8.523,8.523,0,0,0,.689,4.129,5.8,5.8,0,0,0,1.1,1.673,4.051,4.051,0,0,0,1.606,1.038,4.188,4.188,0,0,0,2.112.134,3.712,3.712,0,0,0,1.478-.553,3.454,3.454,0,0,0,1-1.017,3.914,3.914,0,0,0,.537-1.351,5.938,5.938,0,0,0,.1-1.566l2.518-.419a7.093,7.093,0,0,1-.164,2.509,6,6,0,0,1-1,2.107,5.865,5.865,0,0,1-1.735,1.553,6.822,6.822,0,0,1-2.384.843,7.045,7.045,0,0,1-3.064-.115,6.563,6.563,0,0,1-2.5-1.291,7.528,7.528,0,0,1-1.8-2.224,9.558,9.558,0,0,1-1-5.966,7.561,7.561,0,0,1,.984-2.688,6.748,6.748,0,0,1,1.94-2.043,6.946,6.946,0,0,1,2.859-1.113,7.916,7.916,0,0,1,2.389-.05,6.146,6.146,0,0,1,2.1.669,5.225,5.225,0,0,1,1.615,1.354,5.563,5.563,0,0,1,1,2.02Z" transform="translate(-13.106)"/>
      <path d="M286.386,235.969l2.869-.479.465,2.787-2.869.479Z" transform="translate(-13.106)"/>
      <path d="M294.568,222.319l2.621-.438,4.544,10.827.042-.007,1.091-11.767,2.643-.441,4.771,10.789.041-.007.865-11.73,2.621-.437L312.2,234.526l-2.622.437-4.832-10.779-.042.007-1.133,11.775-2.662.444Z" transform="translate(-13.106)"/>
      <path d="M315.5,218.825l2.581-.43,2.459,14.739-2.581.431Z" transform="translate(-13.106)"/>
      <path d="M321.238,217.868l2.58-.431,2.088,12.51,7.493-1.25.372,2.229L323.7,232.607Z" transform="translate(-13.106)"/>
      <path d="M336.419,225.434a3.33,3.33,0,0,0,.53,1.4,2.647,2.647,0,0,0,.969.846,3.468,3.468,0,0,0,1.279.359,5.8,5.8,0,0,0,1.485-.068,4.742,4.742,0,0,0,1.412-.436,2.958,2.958,0,0,0,.885-.668,1.843,1.843,0,0,0,.419-.8,2.16,2.16,0,0,0,.03-.842,1.792,1.792,0,0,0-.591-1.185,2.214,2.214,0,0,0-.931-.428,17.812,17.812,0,0,0-1.918-.243q-1.086-.083-2.681-.241a5.613,5.613,0,0,1-1.689-.387,3.808,3.808,0,0,1-1.151-.731,3.188,3.188,0,0,1-.7-.964,4.256,4.256,0,0,1-.345-1.11,3.9,3.9,0,0,1,.142-2.008,4.2,4.2,0,0,1,1-1.557,5.484,5.484,0,0,1,1.6-1.084,7.7,7.7,0,0,1,1.918-.585,7.838,7.838,0,0,1,2.228-.064,5.453,5.453,0,0,1,1.946.6,4.477,4.477,0,0,1,1.474,1.271,4.418,4.418,0,0,1,.793,1.958l-2.58.431a2.525,2.525,0,0,0-1.305-1.852,3.909,3.909,0,0,0-2.308-.22,4.831,4.831,0,0,0-.913.249,2.991,2.991,0,0,0-.816.454,1.941,1.941,0,0,0-.551.7,1.823,1.823,0,0,0,.587,2.121,3.19,3.19,0,0,0,1.381.458c.057,0,.283.027.679.067s.838.083,1.327.129l1.433.132c.466.042.8.075,1,.1a4.348,4.348,0,0,1,1.362.41,4.043,4.043,0,0,1,1.048.748,3.769,3.769,0,0,1,.718.994,4.044,4.044,0,0,1,.368,1.127,4.232,4.232,0,0,1-.152,2.2,4.351,4.351,0,0,1-1.093,1.657,5.846,5.846,0,0,1-1.742,1.128,9.074,9.074,0,0,1-2.1.617,8.972,8.972,0,0,1-2.425.087,5.622,5.622,0,0,1-2.1-.627,4.7,4.7,0,0,1-1.595-1.42,5.54,5.54,0,0,1-.911-2.277Z" transform="translate(-13.106)"/>
      <path d="M352.679,212.261a6.94,6.94,0,0,1,3.065.124,6.748,6.748,0,0,1,2.5,1.3,7.562,7.562,0,0,1,1.8,2.223,9.552,9.552,0,0,1,1,5.966,7.557,7.557,0,0,1-.984,2.69,6.6,6.6,0,0,1-1.942,2.031,7.605,7.605,0,0,1-5.924.989,6.591,6.591,0,0,1-2.5-1.291,7.522,7.522,0,0,1-1.8-2.224,9.553,9.553,0,0,1-1-5.966,7.559,7.559,0,0,1,.984-2.689,6.771,6.771,0,0,1,1.94-2.043A6.959,6.959,0,0,1,352.679,212.261Zm.351,2.1a4.193,4.193,0,0,0-1.954.815,4.037,4.037,0,0,0-1.181,1.5,5.784,5.784,0,0,0-.493,1.938,8.487,8.487,0,0,0,.689,4.129,5.76,5.76,0,0,0,1.1,1.674,4.027,4.027,0,0,0,1.6,1.037,4.669,4.669,0,0,0,4.066-.678,4.058,4.058,0,0,0,1.182-1.5,5.8,5.8,0,0,0,.493-1.94,8.492,8.492,0,0,0-.689-4.129,5.816,5.816,0,0,0-1.1-1.673,4.038,4.038,0,0,0-1.605-1.037A4.2,4.2,0,0,0,353.03,214.365Z" transform="translate(-13.106)"/>
      <path d="M362.047,211.058l2.725-.455,8.541,9.734.041-.007-1.811-10.857,2.457-.41,2.459,14.739-2.725.455-8.517-9.718-.062.01,1.808,10.838-2.456.41Z" transform="translate(-13.106)"/>
      <path d="M378.9,220.53l2.87-.479.465,2.787a3.253,3.253,0,0,1-.426,2.277A3.536,3.536,0,0,1,380,226.564l-.21-1.259a1.576,1.576,0,0,0,.9-.923,2.331,2.331,0,0,0,.111-1.3l-1.424.238Z" transform="translate(-13.106)"/>
      <path d="M398.146,215.3a10.629,10.629,0,0,1,.148,1.905,4.144,4.144,0,0,1-.4,1.743,3.55,3.55,0,0,1-1.273,1.4,6.364,6.364,0,0,1-2.477.859,5.069,5.069,0,0,1-2.063-.027,3.764,3.764,0,0,1-1.528-.763,3.983,3.983,0,0,1-1.034-1.366,6.92,6.92,0,0,1-.561-1.837l-.131-.785,2.58-.43.128.763a3.8,3.8,0,0,0,.748,1.881,1.749,1.749,0,0,0,1.715.424,2.517,2.517,0,0,0,.992-.356,1.54,1.54,0,0,0,.548-.653,2.29,2.29,0,0,0,.17-.953,8.2,8.2,0,0,0-.121-1.231L393.9,205.742l2.581-.43Z" transform="translate(-13.106)"/>
      <path d="M399.616,204.788l7.039-1.174a5.54,5.54,0,0,1,3.83.442,3.72,3.72,0,0,1,1.706,2.729,4.334,4.334,0,0,1-.018,1.8,3.867,3.867,0,0,1-.536,1.235,2.876,2.876,0,0,1-.714.745c-.248.169-.43.283-.548.346l.007.041a2.7,2.7,0,0,1,.747.087,2.162,2.162,0,0,1,.8.408,2.932,2.932,0,0,1,.7.848,4.218,4.218,0,0,1,.458,1.408,13.1,13.1,0,0,0,.591,2.332,3.161,3.161,0,0,0,.861,1.416l-2.765.461a2.439,2.439,0,0,1-.517-1q-.149-.568-.238-1.1a10.64,10.64,0,0,0-.415-1.724,3.066,3.066,0,0,0-.657-1.141,1.96,1.96,0,0,0-1.016-.564,4.024,4.024,0,0,0-1.494.017l-3.8.634,1.013,6.069-2.581.431Zm3.7,6.279,4.231-.706a2.723,2.723,0,0,0,1.781-.9,2.317,2.317,0,0,0,.345-1.871,2.78,2.78,0,0,0-.4-1.112,1.683,1.683,0,0,0-.684-.6,2.122,2.122,0,0,0-.88-.193,5.7,5.7,0,0,0-.974.078l-4.19.7Z" transform="translate(-13.106)"/>
      <path d="M416,214.34l2.869-.479.466,2.787-2.87.479Z" transform="translate(-13.106)"/>
      <path d="M164.051,274.376a5.391,5.391,0,0,0-.651-1.1,3.271,3.271,0,0,0-2.063-1.236,4.251,4.251,0,0,0-1.45.019,4.18,4.18,0,0,0-1.953.814,4.035,4.035,0,0,0-1.183,1.5,5.807,5.807,0,0,0-.492,1.938,8.5,8.5,0,0,0,.688,4.129,5.815,5.815,0,0,0,1.1,1.674,4.038,4.038,0,0,0,1.606,1.037,4.187,4.187,0,0,0,2.112.135,3.727,3.727,0,0,0,1.478-.553,3.434,3.434,0,0,0,1-1.016,3.919,3.919,0,0,0,.539-1.353,6.011,6.011,0,0,0,.1-1.565l2.518-.42a7.091,7.091,0,0,1-.164,2.509,5.994,5.994,0,0,1-1,2.108,5.876,5.876,0,0,1-1.735,1.552,6.834,6.834,0,0,1-2.385.844,7.056,7.056,0,0,1-3.063-.115,6.591,6.591,0,0,1-2.5-1.291,7.54,7.54,0,0,1-1.8-2.224,9.561,9.561,0,0,1-1-5.966,7.559,7.559,0,0,1,.984-2.689,6.744,6.744,0,0,1,1.94-2.042,6.961,6.961,0,0,1,2.859-1.114,7.914,7.914,0,0,1,2.389-.048,6.124,6.124,0,0,1,2.1.669,5.183,5.183,0,0,1,1.615,1.353,5.563,5.563,0,0,1,1,2.02Z" transform="translate(-13.106)"/>
      <path d="M168.161,268.873l2.58-.43.978,5.862,6.709-1.119-.978-5.863,2.58-.43,2.459,14.739-2.58.431-1.109-6.648-6.709,1.119,1.109,6.648-2.58.431Z" transform="translate(-13.106)"/>
      <path d="M183.126,266.376l2.581-.43,2.46,14.739-2.581.43Z" transform="translate(-13.106)"/>
      <path d="M188.865,265.418l2.58-.43,2.088,12.509,7.493-1.25.372,2.23-10.074,1.68Z" transform="translate(-13.106)"/>
      <path d="M200.713,263.441l6.111-1.019a6.95,6.95,0,0,1,3.027.089,5.534,5.534,0,0,1,2.287,1.241A6.853,6.853,0,0,1,213.7,265.9a11.123,11.123,0,0,1,.957,5.737,6.843,6.843,0,0,1-.775,2.539,5.535,5.535,0,0,1-1.759,1.917,7,7,0,0,1-2.835,1.067l-6.11,1.019Zm4.688,12.2,2.54-.424a6.531,6.531,0,0,0,2.4-.814,3.658,3.658,0,0,0,1.32-1.366,4.083,4.083,0,0,0,.464-1.8,11.232,11.232,0,0,0-.692-4.15,4.1,4.1,0,0,0-1.022-1.547,3.657,3.657,0,0,0-1.693-.863,6.532,6.532,0,0,0-2.534.009l-2.539.424Z" transform="translate(-13.106)"/>
      <path d="M215.617,260.954l7.039-1.174a5.536,5.536,0,0,1,3.829.443,3.716,3.716,0,0,1,1.707,2.728,4.329,4.329,0,0,1-.018,1.795,3.842,3.842,0,0,1-.537,1.236,2.829,2.829,0,0,1-.714.745,5.961,5.961,0,0,1-.547.345l.007.042a2.7,2.7,0,0,1,.747.087,2.17,2.17,0,0,1,.8.408,2.932,2.932,0,0,1,.7.848,4.247,4.247,0,0,1,.458,1.409,13.136,13.136,0,0,0,.591,2.331,3.161,3.161,0,0,0,.861,1.416l-2.765.461a2.442,2.442,0,0,1-.517-1q-.148-.57-.238-1.106a10.64,10.64,0,0,0-.415-1.724,3.078,3.078,0,0,0-.657-1.142,1.966,1.966,0,0,0-1.016-.563,4.068,4.068,0,0,0-1.494.017l-3.8.634,1.013,6.068-2.581.431Zm3.7,6.278,4.233-.706a2.725,2.725,0,0,0,1.78-.9,2.318,2.318,0,0,0,.345-1.872,2.77,2.77,0,0,0-.4-1.112,1.679,1.679,0,0,0-.683-.6,2.155,2.155,0,0,0-.88-.194,5.7,5.7,0,0,0-.974.079l-4.191.7Z" transform="translate(-13.106)"/>
      <path d="M230.149,258.529l10.61-1.771.372,2.23-8.029,1.34.644,3.86,7.431-1.24.351,2.105-7.431,1.241.72,4.314,8.174-1.364.372,2.229-10.755,1.795Z" transform="translate(-13.106)"/>
      <path d="M243.051,256.376l2.724-.455,8.541,9.736.042-.007-1.812-10.859,2.456-.409,2.46,14.739-2.725.454-8.517-9.718-.062.01,1.808,10.838-2.456.41Z" transform="translate(-13.106)"/>
      <path d="M258.849,258.492a1.226,1.226,0,0,0,.9-.8,2.772,2.772,0,0,0,.056-1.252l-1.26.211-.464-2.788,2.58-.43.465,2.787a3.132,3.132,0,0,1-.352,2.148,2.9,2.9,0,0,1-1.722,1.317Z" transform="translate(-13.106)"/>
      <path d="M267.128,262.458a3.33,3.33,0,0,0,.53,1.4,2.647,2.647,0,0,0,.969.846,3.448,3.448,0,0,0,1.279.358,5.758,5.758,0,0,0,1.485-.067,4.684,4.684,0,0,0,1.412-.437,2.954,2.954,0,0,0,.886-.667,1.842,1.842,0,0,0,.418-.8,2.166,2.166,0,0,0,.029-.843,1.788,1.788,0,0,0-.59-1.186,2.224,2.224,0,0,0-.931-.427,18.069,18.069,0,0,0-1.918-.243q-1.086-.083-2.682-.241a5.629,5.629,0,0,1-1.687-.387,3.853,3.853,0,0,1-1.152-.731,3.208,3.208,0,0,1-.7-.964,4.288,4.288,0,0,1-.344-1.111,3.9,3.9,0,0,1,.142-2.007,4.2,4.2,0,0,1,1-1.557,5.506,5.506,0,0,1,1.6-1.085,7.782,7.782,0,0,1,1.918-.585,7.874,7.874,0,0,1,2.228-.064,5.434,5.434,0,0,1,1.946.6,4.323,4.323,0,0,1,2.268,3.229l-2.581.43a2.525,2.525,0,0,0-1.306-1.852,3.913,3.913,0,0,0-2.307-.219,4.982,4.982,0,0,0-.913.248,2.956,2.956,0,0,0-.815.454,1.926,1.926,0,0,0-.552.7,1.822,1.822,0,0,0,.587,2.12,3.178,3.178,0,0,0,1.381.459c.057,0,.284.027.679.066s.838.083,1.327.129.966.091,1.433.133.8.075,1,.1a4.336,4.336,0,0,1,1.363.41,4.008,4.008,0,0,1,1.047.748,3.737,3.737,0,0,1,.718.994,4.005,4.005,0,0,1,.368,1.126,4.235,4.235,0,0,1-.152,2.2,4.368,4.368,0,0,1-1.092,1.657,5.883,5.883,0,0,1-1.743,1.128,9.3,9.3,0,0,1-4.529.7,5.615,5.615,0,0,1-2.1-.625,4.709,4.709,0,0,1-1.595-1.422,5.554,5.554,0,0,1-.911-2.277Z" transform="translate(-13.106)"/>
      <path d="M282.87,249.731l3.632-.606,5.993,10.86.041-.007,2.037-12.2,3.593-.6,2.459,14.74-2.457.409-1.9-11.374-.042.008-2.189,12.056-2.126.354-5.985-10.692-.042.007,1.9,11.374-2.456.41Z" transform="translate(-13.106)"/>
      <path d="M301.1,246.689l2.58-.43,1.432,8.588q.125.743.324,1.495a3.49,3.49,0,0,0,.642,1.3,2.677,2.677,0,0,0,1.2.829,5.126,5.126,0,0,0,3.9-.651,2.675,2.675,0,0,0,.865-1.174,3.471,3.471,0,0,0,.183-1.441q-.054-.775-.179-1.519l-1.433-8.588,2.581-.43,1.574,9.433a6.6,6.6,0,0,1-.02,2.55,4.826,4.826,0,0,1-.935,1.97,5.189,5.189,0,0,1-1.731,1.382,9.053,9.053,0,0,1-4.954.827,5.218,5.218,0,0,1-2.087-.745,4.826,4.826,0,0,1-1.523-1.56,6.57,6.57,0,0,1-.846-2.405Z" transform="translate(-13.106)"/>
      <path d="M319.5,253.719a3.326,3.326,0,0,0,.53,1.4,2.642,2.642,0,0,0,.969.847,3.462,3.462,0,0,0,1.279.358,5.759,5.759,0,0,0,1.485-.067,4.712,4.712,0,0,0,1.412-.437,2.987,2.987,0,0,0,.886-.667,1.862,1.862,0,0,0,.418-.8,2.166,2.166,0,0,0,.029-.843,1.792,1.792,0,0,0-.59-1.185,2.23,2.23,0,0,0-.932-.428,17.766,17.766,0,0,0-1.918-.242q-1.084-.083-2.681-.242a5.576,5.576,0,0,1-1.688-.387,3.808,3.808,0,0,1-1.151-.731,3.179,3.179,0,0,1-.7-.964,4.281,4.281,0,0,1-.344-1.11,3.88,3.88,0,0,1,.142-2.008,4.193,4.193,0,0,1,1-1.556,5.486,5.486,0,0,1,1.6-1.085,7.685,7.685,0,0,1,1.918-.585,7.875,7.875,0,0,1,2.228-.065,5.463,5.463,0,0,1,1.945.6,4.47,4.47,0,0,1,1.475,1.272,4.419,4.419,0,0,1,.793,1.957l-2.58.431a2.526,2.526,0,0,0-1.306-1.852,3.907,3.907,0,0,0-2.307-.219,4.982,4.982,0,0,0-.913.248,2.962,2.962,0,0,0-.816.454,1.931,1.931,0,0,0-.552.7,1.826,1.826,0,0,0,.587,2.12,3.178,3.178,0,0,0,1.382.459c.057,0,.283.027.679.066s.838.083,1.326.129l1.434.132q.7.063,1,.1a4.329,4.329,0,0,1,1.362.41,3.993,3.993,0,0,1,1.048.747,3.78,3.78,0,0,1,.718.995,4.037,4.037,0,0,1,.368,1.126,4.224,4.224,0,0,1-.153,2.2,4.353,4.353,0,0,1-1.092,1.656,5.839,5.839,0,0,1-1.742,1.128,9.1,9.1,0,0,1-2.1.617,8.981,8.981,0,0,1-2.426.087,5.622,5.622,0,0,1-2.1-.626,4.726,4.726,0,0,1-1.6-1.421,5.553,5.553,0,0,1-.91-2.277Z" transform="translate(-13.106)"/>
      <path d="M329.541,241.943l10.611-1.771.371,2.23-8.03,1.339.645,3.861,7.431-1.24.352,2.105-7.432,1.24.72,4.315,8.174-1.365.372,2.23L332,256.682Z" transform="translate(-13.106)"/>
      <path d="M342.381,239.8l2.58-.431,1.433,8.588q.124.743.323,1.5a3.5,3.5,0,0,0,.642,1.3,2.676,2.676,0,0,0,1.2.83,5.124,5.124,0,0,0,3.9-.651,2.673,2.673,0,0,0,.865-1.174,3.49,3.49,0,0,0,.184-1.441q-.054-.775-.179-1.519l-1.433-8.588,2.581-.431,1.574,9.434a6.578,6.578,0,0,1-.021,2.55,4.836,4.836,0,0,1-.934,1.97,5.2,5.2,0,0,1-1.731,1.381,9.055,9.055,0,0,1-4.955.827,5.188,5.188,0,0,1-2.087-.745,4.82,4.82,0,0,1-1.522-1.559,6.57,6.57,0,0,1-.847-2.405Z" transform="translate(-13.106)"/>
      <path d="M357.408,237.292l3.633-.606,5.992,10.86.041-.007,2.038-12.2,3.592-.6,2.46,14.739-2.457.41-1.9-11.374-.041.007-2.189,12.056-2.127.354-5.985-10.692-.041.007,1.9,11.374-2.456.411Z" transform="translate(-13.106)"/>
    </g>
  </g>
</svg>
