<svg xmlns="http://www.w3.org/2000/svg" width="459.378" height="444.867" viewBox="0 0 459.378 444.867">
  <title>Asset 9</title>
  <g>
    <path d="M173.519,5.723c14.729-5.82,34.638-10.278,43.8,2.64,4.25,6,4.408,13.874,4.4,21.222l-.051,116.126,84.818-96.076c15.535-17.6,41.223-36.456,59.571-21.817,4.234,22.834-14.433,42.9-31.531,58.613l-87.082,80.04c5.218,9.645,18.342,12.378,28.949,9.6s19.553-9.681,28.9-15.42c39.214-24.083,90.038-28.156,132.587-10.625,7.94,3.272,16.146,7.8,19.685,15.625,8.9,19.68-16.787,36.69-37.666,42.22a557.931,557.931,0,0,1-117.784,18.022c44.714,12.522,91.435,26.168,124.7,58.568,12.426,12.1,23.114,29.161,18.688,45.933-7.527,28.522-48.054,29.839-75.8,19.82A247.926,247.926,0,0,1,253.81,262.894l16.219,89.993c3.089,17.143,6.181,34.747,2.962,51.867s-14.178,33.913-30.858,38.935c-4.641,1.4-9.809,1.8-14.229-.187-8.2-3.689-10.922-13.769-12.684-22.584L186.536,277.447c-8.414,35.182-17.074,70.979-35.6,102.047s-48.8,57.243-84.7,61.713c-11.475-34.719-4.525-73.578,12.026-106.184s41.951-59.835,68.514-84.966a298.21,298.21,0,0,1-99.209-8.808c-25.678-6.741-55.942-28.618-45.418-52.991,41.943-11.806,126.659-8.307,157.04-41.417C180.412,123.708,161.817,10.346,173.519,5.723Z" fill="#3fa9f5"/>
    <g>
      <path d="M44.482,211.95l-2.817.209-.987-13.275,2.37-.176.447,2.6c1.068-1.845,2.4-3.123,4.663-3.292a3.93,3.93,0,0,1,4.191,2.438,5.86,5.86,0,0,1,4.706-3.1c2.677-.2,4.455,1.436,4.658,4.2l.675,9.064-2.817.21-.641-8.618a2.364,2.364,0,0,0-2.681-2.493,3.641,3.641,0,0,0-3.4,3.73l.583,7.837-2.816.209-.642-8.617a2.364,2.364,0,0,0-2.681-2.493,3.639,3.639,0,0,0-3.4,3.73Z"/>
      <path d="M75.8,196.176a6.579,6.579,0,0,1,2.522,4.386l.19,1.1a6.144,6.144,0,0,1-5.257,7.5,6.438,6.438,0,0,1-4.929-.934,6.262,6.262,0,0,1-2.566-4.323l-.2-1.13a6.44,6.44,0,0,1,.953-4.989,7.1,7.1,0,0,1,9.284-1.609Zm-7.532,5.818.29,1.681a3.687,3.687,0,1,0,7.247-1.257l-.292-1.681c-.4-2.286-2-3.71-4.292-3.313S67.865,199.707,68.263,201.994Z"/>
      <path d="M78.762,194.224l2.909-.7,6.157,9.1.055-.013,1.319-10.9,2.8-.674-2.089,14.277-2.8.674Z"/>
      <path d="M93.062,185.168l2.957-.852.735,2.554-2.955.85Zm1.571,5.049,2.742-.791,3.684,12.793-2.742.791Z"/>
      <path d="M101.556,188.225l2.252-.756,1.085,2.439a5.753,5.753,0,0,1,3.83-4.413c2.572-.863,4.758.29,5.649,2.942L117.247,197l-2.7.908-2.733-8.14a2.469,2.469,0,0,0-3.364-1.761,3.75,3.75,0,0,0-2.467,4.516l2.493,7.423-2.678.9Z"/>
      <path d="M128.5,197.575c-4.264,1.692-6.709,1.518-7.4-.223-.454-1.143.193-2.243,2.009-3.355l-.021-.052c-1.439.09-2.539-.1-2.921-1.067-.371-.937.275-1.885,1.457-2.926a4.021,4.021,0,0,1-3.478-2.621l-.134-.339c-.99-2.495.544-5,3.689-6.247a6.76,6.76,0,0,1,2.177-.5c1-.606,1.568-1.133,1.709-1.61a2.476,2.476,0,0,0-.162-1.622l1.924-.763a3.046,3.046,0,0,1,.61.931c.506,1.274-.27,2.274-2.153,3.292a3.716,3.716,0,0,1,2.942,2.413l.114.287c.979,2.469-.408,4.885-3.736,6.206a10.066,10.066,0,0,1-2.094.559c-.916.725-1.058,1.2-.934,1.515.257.649,1.874.4,3.875-.395l.441-.174c4.342-1.724,6.439-1.141,7.222.835C134.454,193.769,132.663,195.925,128.5,197.575Zm-2.124-13.39-.2-.494c-.545-1.378-1.915-1.947-3.761-1.215-1.872.742-2.463,2.06-1.915,3.438l.194.494c.547,1.378,1.891,1.958,3.763,1.215C126.31,186.891,126.926,185.563,126.379,184.185Zm5.086,8.724c-.36-.91-1.809-.846-4.617.267l-.39.156c-2.5.99-3.48,2.072-3.151,2.9.341.858,1.821.873,4.629-.241C130.64,194.922,131.837,193.844,131.465,192.909Z"/>
      <path d="M134.98,175.568l2.615-1.276,7.178,7.762.05-.024-1.6-10.484,2.363-1.153,7.329,7.689.051-.025-1.7-10.435,2.463-1.2,1.851,14-2.336,1.139s-.384-.4-1.177-1.2c-.781-.769-1.61-1.641-2.538-2.589-.917-.922-1.746-1.793-2.515-2.6-.78-.771-1.164-1.175-1.164-1.175l-.05.024,1.437,10.472-2.339,1.14Z"/>
      <path d="M165.234,175.5c-2.179,1.2-4.112.765-5.192-1.2a3.4,3.4,0,0,1,.255-3.939c.792-1.17,2.437-2.588,5.292-4.417l-.392-.711c-.823-1.493-2.054-1.932-3.793-.973-1.64.9-2.153,2.176-1.437,3.474l.081.147-2.229,1.228-.121-.221c-1.188-2.154-.668-4.8,2.686-6.652,3.257-1.8,5.742-1,7.255,1.748l2.536,4.6c.662,1.2,1.091,1.282,2.206.7l.878,1.592-.906.5c-1.64.905-2.815.976-4.007-.665A5.782,5.782,0,0,1,165.234,175.5Zm-.162-2.147c1.837-1.012,2.731-3.388,1.921-4.857l-.662-1.2a15.044,15.044,0,0,0-3.815,3.157,1.965,1.965,0,0,0-.182,2.335C162.874,173.763,163.8,174.051,165.072,173.349Z"/>
      <path d="M167.646,158.612l2.069-1.227-1.455-2.453,2.059-2.065,1.826,3.078,3.582-2.126,1.1,1.852-3.582,2.125,3.28,5.532c1.013,1.707,1.856,1.922,3.491.952l.746-.442,1.084,1.828-1.347.8c-2.717,1.612-4.663,1.237-6.161-1.288l-3.524-5.94-2.068,1.227Z"/>
      <path d="M192.386,154.325a3.929,3.929,0,0,1,.364,3.473,6.553,6.553,0,0,1-2.949,3.4c-3.745,2.35-6.94,1.153-8.964-2.069l-.476-.759c-2.038-3.245-1.589-6.9,1.776-9.01,3.53-2.217,6.644-.835,8.607,2.293l.611.971-8.246,5.177.1.165c1.249,1.992,3.108,2.741,5.406,1.3,1.872-1.174,2.24-2.694,1.6-3.713l-.029-.047,2.109-1.325Zm-10.131,2.067,5.971-3.749c-1.276-1.875-2.932-2.618-4.922-1.369C181.408,152.465,181.115,154.367,182.255,156.392Z"/>
      <path d="M190.028,144.795l1.984-1.31L194,146.094c-.368-2.034-.04-4.126,1.922-5.42.35-.231.661-.37.98-.545l1.509,2.287a5.644,5.644,0,0,0-1.128.577,4.225,4.225,0,0,0-1.882,2.581,3.554,3.554,0,0,0,.434,2.9l3.881,5.884-2.359,1.555Z"/>
    </g>
  </g>
</svg>
