<svg xmlns="http://www.w3.org/2000/svg" width="478.337" height="386.653" viewBox="0 0 478.337 386.653">
  <title>Asset 16</title>
  <g>
    <path d="M0,177.808V385.451c80.357,2.01,160.8.574,241.071-3.628q.128-87.134.173-174.165c.021-14.31-.015-28.963-4.889-42.417-32.183-25.027-43.475-71.19-68.133-103.656C152.781,41.254,132.32,23.9,123.345,0,90.269,38.771,56.814,77.658,29.506,120.687c-5.895,9.289-11.553,18.725-17.21,28.16C5.894,159.524,6.4,167.131,0,177.808Z" fill="#e6e6e6"/>
    <path d="M237.091,178.113V385.756c80.357,2.01,160.8.573,241.072-3.628q.127-87.135.172-174.165c.021-14.31-.015-28.963-4.889-42.418-32.183-25.026-43.475-71.189-68.132-103.656-15.441-20.331-35.9-37.684-44.878-61.584C327.36,39.076,293.9,77.963,266.6,120.992c-5.895,9.288-11.553,18.724-17.21,28.159C242.985,159.829,243.494,167.435,237.091,178.113Z" fill="#e6e6e6"/>
  </g>
</svg>
