<svg xmlns="http://www.w3.org/2000/svg" width="622.56" height="622.56" viewBox="0 0 622.56 622.56">
  <title>Asset 35</title>
  <g>
    <path d="M488.65,241.833c31.218-23.562,40.018-68.288,14.629-100.415S418.35,99.2,389.971,125.24c20.284-28.746-9.9-73.21-50.277-82.084S258.818,54.74,240.366,84.464c-36.68-20.135-85.572.722-99.571,33.338s-2.389,70.913,13.917,105.071c-24,3.172-50.818,7.945-62.149,25.776-13.89,21.86,3.457,51.112,25.139,70.764,24.844,22.518,61.452,44.6,91.359,61.1a117.311,117.311,0,0,0,18.1,8.076q-22.013,83.985-44.026,167.971a584.532,584.532,0,0,0,122.14,22.237c2.387.177,4.974.284,7.067-1.222,2.552-1.837,3.534-5.434,4.283-8.692a968.568,968.568,0,0,0,23.046-161.246c18.078,7.351,37.558,10.691,55.951,7.224,32.006-6.031,54.09-38.815,36.9-64.62,34.859,16.335,81.3,4.581,96.295-24.37S524.432,256.385,488.65,241.833Z" fill="#8cc63f"/>
    <rect width="622.56" height="622.56" fill="none"/>
  </g>
</svg>
