<svg xmlns="http://www.w3.org/2000/svg" width="453.796" height="546.808" viewBox="0 0 453.796 546.808">
  <title>Asset 4</title>
  <g>
    <path d="M418.727,222.17c31.74-23.955,40.686-69.428,14.874-102.092S347.252,77.15,318.4,103.63C339.023,74.4,308.332,29.2,267.283,20.175s-82.227,11.777-100.986,42C129,41.7,79.3,62.907,65.062,96.068s-2.429,72.1,14.149,106.826c-24.4,3.224-51.667,8.077-63.186,26.206C1.9,251.325,19.539,281.065,41.583,301.046c25.259,22.893,62.479,45.345,92.886,62.117a119.213,119.213,0,0,0,18.4,8.211Q130.484,456.761,108.1,542.15a594.319,594.319,0,0,0,124.18,22.609c2.427.18,5.057.289,7.185-1.242,2.595-1.868,3.593-5.525,4.355-8.837a984.743,984.743,0,0,0,23.43-163.94c18.38,7.474,38.186,10.869,56.886,7.345,32.541-6.132,54.994-39.464,37.518-65.7,35.441,16.608,82.663,4.658,97.9-24.776S455.107,236.965,418.727,222.17Z" transform="translate(-10.961 -18.051)" fill="#8cc63f"/>
    <g>
      <path d="M87.848,99.326,90,98.316l1.309,2.26a5.485,5.485,0,0,1,3.184-4.738,4.829,4.829,0,0,1,4.244-.107,6.551,6.551,0,0,1,3.183,3.357l.747,1.6a6.509,6.509,0,0,1,.523,4.605,4.9,4.9,0,0,1-2.808,3.233,5.374,5.374,0,0,1-5.248-.318l2.794,5.95-2.559,1.2Zm4.83,1.009a4.15,4.15,0,0,0,.233,3.2l.581,1.241a4.076,4.076,0,0,0,2.31,2.222,3.579,3.579,0,0,0,2.88-.053c2-.939,2.391-3.069,1.429-5.12l-.69-1.468c-.986-2.1-2.849-3.112-4.85-2.173A3.6,3.6,0,0,0,92.678,100.335Z" transform="translate(-10.961 -18.051)"/>
      <path d="M117.981,98.952a3.927,3.927,0,0,1-.869,3.38,6.552,6.552,0,0,1-3.952,2.164c-4.325.9-6.9-1.337-7.678-5.061l-.182-.877c-.779-3.751.913-7.018,4.8-7.826,4.08-.847,6.517,1.532,7.268,5.147L117.605,97l-9.531,1.98.039.192c.479,2.3,1.959,3.65,4.616,3.1,2.163-.449,3.036-1.745,2.793-2.922l-.012-.055,2.438-.507ZM107.765,97.36l6.9-1.434c-.544-2.2-1.836-3.475-4.136-3C108.338,93.384,107.4,95.064,107.765,97.36Z" transform="translate(-10.961 -18.051)"/>
      <path d="M121.433,89.646l2.379.015.2,3.275c.823-1.9,2.26-3.455,4.608-3.44.421,0,.756.061,1.12.091l-.018,2.741a5.631,5.631,0,0,0-1.257-.148,4.237,4.237,0,0,0-3,1.1,3.552,3.552,0,0,0-1.247,2.651l-.045,7.048-2.825-.017Z" transform="translate(-10.961 -18.051)"/>
      <path d="M131.118,99l.067-.414,2.4.387-.045.276c-.236,1.463.7,2.718,3.014,3.091,1.879.3,3.079-.3,3.261-1.428.166-1.022-.473-1.635-3.121-2.6-3.358-1.136-4.789-2.443-4.429-4.678.356-2.209,2.633-3.684,6.028-3.136,3.562.574,5.187,2.62,4.782,5.132l-.049.3-2.4-.387.027-.166c.231-1.435-.726-2.525-2.743-2.849-1.656-.267-2.912.323-3.076,1.345s.665,1.665,3.129,2.544c3.442,1.149,4.851,2.424,4.473,4.771-.375,2.319-2.706,3.785-6.269,3.21C132.164,103.759,130.709,101.541,131.118,99Z" transform="translate(-10.961 -18.051)"/>
      <path d="M157.714,96.722a6.582,6.582,0,0,1,.482,5.038l-.283,1.083a6.141,6.141,0,0,1-7.884,4.654,6.433,6.433,0,0,1-4.1-2.888,6.26,6.26,0,0,1-.55-5l.289-1.109a6.422,6.422,0,0,1,2.928-4.151,7.1,7.1,0,0,1,9.123,2.371Zm-9.266,2.185-.43,1.652a3.687,3.687,0,1,0,7.119,1.851l.429-1.651c.584-2.247-.292-4.209-2.539-4.794S149.031,96.661,148.448,98.907Z" transform="translate(-10.961 -18.051)"/>
      <path d="M162.964,96.83l2.313.557-.378,2.643a5.755,5.755,0,0,1,5.589-1.7c2.638.635,3.879,2.776,3.223,5.5l-2.115,8.784-2.775-.668,2.011-8.35a2.47,2.47,0,0,0-1.915-3.28,3.752,3.752,0,0,0-4.49,2.514l-1.833,7.616-2.747-.662Z" transform="translate(-10.961 -18.051)"/>
      <path d="M193.4,109.391v-.029l2.6-.075.009.279c.072,2.544-1.815,4.92-5.56,5.029-4.11.119-6.449-2.414-6.565-6.467l-.023-.756c-.116-4.024,2.211-6.748,6.207-6.864,3.717-.108,5.74,2.1,5.814,4.7l.01.307-2.6.076v-.057a2.77,2.77,0,0,0-3.185-2.76c-2.376.069-3.557,1.809-3.483,4.352l.032,1.09c.073,2.544,1.352,4.185,3.7,4.117A2.8,2.8,0,0,0,193.4,109.391Z" transform="translate(-10.961 -18.051)"/>
      <path d="M212.2,106.154a3.933,3.933,0,0,1-.674,3.425,6.538,6.538,0,0,1-3.818,2.386c-4.268,1.147-6.97-.936-7.957-4.61l-.232-.864c-.993-3.7.508-7.056,4.343-8.087,4.025-1.081,6.593,1.153,7.551,4.718l.3,1.108-9.4,2.525.05.188c.61,2.27,2.165,3.532,4.785,2.828,2.135-.573,2.932-1.917,2.619-3.079l-.015-.054,2.4-.646Zm-10.289-1,6.8-1.829c-.668-2.166-2.033-3.363-4.3-2.753C202.249,101.152,201.412,102.883,201.907,105.154Z" transform="translate(-10.961 -18.051)"/>
      <path d="M212.709,96l2.071-1.166,1.524,2.191a5.753,5.753,0,0,1,2.931-5.054c2.364-1.331,4.729-.608,6.1,1.829l4.433,7.872-2.487,1.4-4.212-7.481a2.47,2.47,0,0,0-3.636-1.1,3.751,3.751,0,0,0-1.575,4.9l3.843,6.823-2.461,1.387Z" transform="translate(-10.961 -18.051)"/>
      <path d="M225.191,88.4l1.9-1.473-1.746-2.256,1.787-2.3,2.193,2.83,3.294-2.551,1.319,1.7L230.644,86.9l3.938,5.086c1.216,1.57,2.079,1.68,3.582.515l.687-.531,1.3,1.68-1.238.959c-2.5,1.936-4.475,1.805-6.274-.517l-4.23-5.461-1.9,1.473Z" transform="translate(-10.961 -18.051)"/>
      <path d="M249.507,81a3.934,3.934,0,0,1,.726,3.414,6.554,6.554,0,0,1-2.575,3.7c-3.475,2.731-6.779,1.876-9.13-1.114l-.553-.7c-2.368-3.014-2.306-6.692.817-9.146,3.278-2.576,6.519-1.529,8.8,1.374l.708.9-7.654,6.015.122.153c1.451,1.848,3.377,2.4,5.511.722,1.737-1.367,1.943-2.915,1.2-3.861l-.033-.044,1.957-1.538Zm-9.857,3.121,5.543-4.356c-1.467-1.729-3.192-2.3-5.039-.843C238.394,80.3,238.3,82.222,239.65,84.117Z" transform="translate(-10.961 -18.051)"/>
      <path d="M247.306,71.224l2-1.281,1.95,2.638c-.341-2.039.018-4.127,2-5.392.353-.225.665-.359.987-.531l1.475,2.309a5.628,5.628,0,0,0-1.136.56,4.231,4.231,0,0,0-1.919,2.553,3.551,3.551,0,0,0,.393,2.9l3.8,5.94-2.381,1.52Z" transform="translate(-10.961 -18.051)"/>
      <path d="M271.956,69.188a3.927,3.927,0,0,1-.291,3.478,6.544,6.544,0,0,1-3.532,2.793c-4.115,1.611-7.031-.162-8.417-3.7l-.326-.833c-1.4-3.568-.274-7.07,3.424-8.519,3.881-1.518,6.68.42,8.027,3.858l.417,1.068L262.2,70.875l.071.183c.856,2.188,2.542,3.27,5.068,2.282,2.058-.806,2.7-2.229,2.264-3.349l-.021-.053,2.319-.906Zm-10.337.141,6.564-2.569c-.9-2.079-2.392-3.118-4.58-2.263C261.52,65.313,260.877,67.126,261.619,69.329Z" transform="translate(-10.961 -18.051)"/>
      <path d="M283.489,52.65l2.819-.186,1.277,19.311-2.4.159-.367-2.583a5.527,5.527,0,0,1-4.717,3.255,4.762,4.762,0,0,1-3.967-1.475,6.5,6.5,0,0,1-1.74-4.285l-.114-1.73a6.59,6.59,0,0,1,1.186-4.508,4.842,4.842,0,0,1,3.767-1.959,5.44,5.44,0,0,1,4.8,2.178Zm-6.444,12.338.108,1.619c.152,2.316,1.521,3.935,3.726,3.789a3.579,3.579,0,0,0,2.572-1.346,4.028,4.028,0,0,0,.922-3.032l-.092-1.4a4.134,4.134,0,0,0-1.315-2.912,3.666,3.666,0,0,0-2.725-.969C278.035,60.887,276.892,62.672,277.045,64.988Z" transform="translate(-10.961 -18.051)"/>
    </g>
    <g>
      <path d="M80.473,288.447l.015-.022,2.152,1.462-.157.231c-1.432,2.105-4.356,2.924-7.454.818-3.4-2.311-3.813-5.736-1.534-9.09l.425-.624c2.265-3.331,5.747-4.177,9.054-1.929,3.076,2.091,3.423,5.065,1.961,7.217l-.172.254L82.611,285.3l.032-.046a2.772,2.772,0,0,0-.966-4.1c-1.965-1.336-3.941-.617-5.373,1.488l-.612.9c-1.431,2.1-1.357,4.184.587,5.505A2.794,2.794,0,0,0,80.473,288.447Z" transform="translate(-10.961 -18.051)"/>
      <path d="M98.305,290.992a6.58,6.58,0,0,1-.956,4.969l-.575.96a6.145,6.145,0,0,1-8.876,2.245,6.438,6.438,0,0,1-3.125-3.927,6.261,6.261,0,0,1,.88-4.949l.59-.983a6.431,6.431,0,0,1,3.978-3.159,7.1,7.1,0,0,1,8.084,4.844Zm-9.505-.513-.877,1.464a3.686,3.686,0,1,0,6.308,3.78l.877-1.463c1.193-1.991.905-4.12-1.086-5.313S89.993,288.489,88.8,290.479Z" transform="translate(-10.961 -18.051)"/>
      <path d="M99.837,305.566l-2.513-1.291,6.084-11.844,2.116,1.086-.979,2.454c1.876-1.017,3.682-1.411,5.7-.375a3.93,3.93,0,0,1,2.306,4.266,5.859,5.859,0,0,1,5.633-.188c2.389,1.226,3.052,3.549,1.785,6.012l-4.153,8.087-2.514-1.291,3.95-7.689a2.366,2.366,0,0,0-.987-3.526,3.641,3.641,0,0,0-4.845,1.411l-3.592,6.992-2.514-1.291,3.95-7.69a2.365,2.365,0,0,0-.986-3.526,3.643,3.643,0,0,0-4.846,1.411Z" transform="translate(-10.961 -18.051)"/>
      <path d="M122.616,316.876l-2.584-1.14,5.37-12.178,2.174.96-.83,2.506c1.811-1.127,3.59-1.627,5.662-.712a3.928,3.928,0,0,1,2.553,4.121,5.861,5.861,0,0,1,5.61-.521c2.455,1.083,3.253,3.36,2.136,5.894l-3.667,8.315-2.584-1.141,3.488-7.905a2.365,2.365,0,0,0-1.195-3.46A3.64,3.64,0,0,0,134,313.31l-3.171,7.188-2.584-1.14,3.487-7.905a2.364,2.364,0,0,0-1.194-3.46,3.64,3.64,0,0,0-4.751,1.694Z" transform="translate(-10.961 -18.051)"/>
      <path d="M147.67,313.211l2.621,1.055-3.206,7.967a2.5,2.5,0,0,0,1.416,3.526,3.8,3.8,0,0,0,4.845-1.85l2.914-7.241,2.621,1.055-4.971,12.353-2.232-.9.759-2.559a5.77,5.77,0,0,1-5.763.907c-2.516-1.013-3.422-3.337-2.377-5.932Z" transform="translate(-10.961 -18.051)"/>
      <path d="M162.626,319.176l2.221.849-.714,2.573a5.754,5.754,0,0,1,5.763-.972c2.535.969,3.489,3.25,2.49,5.864l-3.226,8.44-2.666-1.019,3.068-8.022a2.473,2.473,0,0,0-1.479-3.5,3.75,3.75,0,0,0-4.775,1.918l-2.8,7.317-2.64-1.01Z" transform="translate(-10.961 -18.051)"/>
      <path d="M177.768,324.928l2.673,1L175.783,338.4l-2.674-1Zm1.746-4.992,2.881,1.077-.93,2.489-2.881-1.077Z" transform="translate(-10.961 -18.051)"/>
      <path d="M183.26,326.979l2.257.837.991-2.676,2.9.3-1.244,3.357,3.909,1.448-.749,2.019-3.907-1.448-2.235,6.034c-.69,1.861-.326,2.652,1.457,3.313l.812.3-.737,1.994-1.47-.544c-2.962-1.1-3.9-2.846-2.877-5.6l2.4-6.478L182.513,329Z" transform="translate(-10.961 -18.051)"/>
      <path d="M193.49,330.763l2.78,1.029.067,11.092.052.019,7.145-8.42,2.676.992-9.315,10.33c-2.5,2.714-4.068,3.653-7.241,2.477l-1.076-.4.749-2.021.5.185c1.679.622,2.693.461,3.658-.613l.44-.464Z" transform="translate(-10.961 -18.051)"/>
      <path d="M213.248,338.123l2.249.853,1.012-2.668,2.9.321-1.27,3.348,3.9,1.478-.763,2.014-3.9-1.478-2.282,6.016c-.7,1.857-.347,2.651,1.432,3.326l.811.307-.754,1.988-1.464-.556c-2.956-1.12-3.877-2.875-2.835-5.622l2.45-6.461-2.25-.852Z" transform="translate(-10.961 -18.051)"/>
      <path d="M224.725,342.462l2.235.809-.9,3.153c1.41-1.513,3.284-2.5,5.493-1.7.395.142.692.309,1.024.46l-.933,2.577a5.635,5.635,0,0,0-1.135-.559,4.229,4.229,0,0,0-3.194.033,3.558,3.558,0,0,0-2.064,2.08l-2.4,6.628-2.656-.961Z" transform="translate(-10.961 -18.051)"/>
      <path d="M242.884,358.305a3.929,3.929,0,0,1-2.4,2.533,6.539,6.539,0,0,1-4.5-.026c-4.219-1.313-5.388-4.518-4.258-8.149l.267-.854c1.138-3.659,4.2-5.692,7.994-4.512,3.978,1.239,4.954,4.5,3.856,8.025l-.341,1.095-9.291-2.893-.058.187c-.7,2.244-.059,4.142,2.531,4.947,2.109.657,3.5-.052,3.858-1.2l.017-.053,2.377.74Zm-8.157-6.348,6.729,2.1c.593-2.187.08-3.928-2.162-4.627C237.158,348.76,235.524,349.774,234.727,351.957Z" transform="translate(-10.961 -18.051)"/>
      <path d="M258.216,361.693a3.927,3.927,0,0,1-2.136,2.759,6.549,6.549,0,0,1-4.483.424c-4.328-.887-5.811-3.959-5.047-7.685l.179-.877c.768-3.753,3.614-6.082,7.5-5.285,4.082.836,5.379,3.985,4.637,7.6l-.23,1.123-9.532-1.952-.041.191c-.471,2.3.354,4.126,3.011,4.67,2.164.443,3.48-.4,3.721-1.578l.011-.055,2.438.5Zm-8.75-5.5,6.9,1.415c.372-2.236-.311-3.917-2.612-4.389C251.567,352.767,250.041,353.938,249.466,356.189Z" transform="translate(-10.961 -18.051)"/>
      <path d="M263.387,347.042l2.824.058-.174,8.415a5.579,5.579,0,0,1,4.893-2.584c2.711.055,4.38,1.88,4.321,4.675l-.185,9.031-2.852-.059.177-8.582a2.469,2.469,0,0,0-2.571-2.794,3.749,3.749,0,0,0-3.846,3.416l-.162,7.828-2.823-.058Z" transform="translate(-10.961 -18.051)"/>
      <path d="M289.437,351.511a6.587,6.587,0,0,1,2.927,4.128l.294,1.079a6.141,6.141,0,0,1-4.518,7.963,6.44,6.44,0,0,1-5-.459,6.265,6.265,0,0,1-2.967-4.06l-.3-1.106a6.444,6.444,0,0,1,.471-5.057,7.1,7.1,0,0,1,9.092-2.488Zm-6.945,6.51.449,1.646a3.686,3.686,0,1,0,7.093-1.941l-.45-1.646c-.612-2.239-2.35-3.5-4.589-2.89S281.878,355.783,282.492,358.021Z" transform="translate(-10.961 -18.051)"/>
      <path d="M293.379,348.267l2.432-1.437,4.368,7.388a2.5,2.5,0,0,0,3.658,1.021,3.8,3.8,0,0,0,1.48-4.968l-3.971-6.714,2.432-1.437,6.772,11.455-2.069,1.224-1.57-2.158a5.764,5.764,0,0,1-2.784,5.122c-2.335,1.381-4.727.684-6.151-1.722Z" transform="translate(-10.961 -18.051)"/>
      <path d="M311.525,347.817l-.235-.348,2.019-1.358.157.232c.826,1.23,2.364,1.51,4.313.2,1.578-1.062,2.046-2.321,1.406-3.271-.578-.859-1.463-.871-4.057.234-3.228,1.464-5.166,1.488-6.43-.392-1.249-1.855-.594-4.488,2.259-6.408,2.994-2.015,5.578-1.629,7,.482l.172.255-2.018,1.359-.094-.14c-.812-1.206-2.255-1.348-3.948-.208-1.392.937-1.907,2.227-1.329,3.085s1.625.761,4.024-.281c3.3-1.511,5.2-1.543,6.525.43,1.311,1.949.609,4.612-2.383,6.626C315.538,350.576,312.961,349.952,311.525,347.817Z" transform="translate(-10.961 -18.051)"/>
      <path d="M333.868,333.862a3.923,3.923,0,0,1,.218,3.483A6.54,6.54,0,0,1,331,340.624c-3.837,2.192-6.98.864-8.867-2.438l-.444-.777c-1.9-3.326-1.3-6.955,2.146-8.926,3.617-2.067,6.67-.559,8.5,2.647l.57,1-8.451,4.829.1.171c1.166,2.039,2.991,2.863,5.347,1.518,1.918-1.1,2.347-2.6,1.751-3.642l-.028-.049,2.161-1.235Zm-10.2,1.646,6.12-3.5c-1.2-1.925-2.822-2.737-4.861-1.57C322.979,331.55,322.609,333.438,323.663,335.508Z" transform="translate(-10.961 -18.051)"/>
    </g>
    <g>
      <path d="M316.95,186.81l.01-.42,2.433.054-.007.279c-.031,1.482,1.063,2.6,3.412,2.65,1.9.042,3.011-.718,3.035-1.864.024-1.035-.692-1.554-3.451-2.147-3.482-.664-5.081-1.762-5.03-4.028.048-2.237,2.1-4.012,5.543-3.936,3.608.08,5.5,1.884,5.443,4.43l-.008.308-2.433-.054,0-.168c.032-1.455-1.066-2.4-3.109-2.447-1.677-.036-2.842.721-2.864,1.756s.889,1.558,3.451,2.09c3.569.666,5.139,1.737,5.087,4.115-.053,2.348-2.162,4.121-5.769,4.041C318.641,191.38,316.9,189.383,316.95,186.81Z" transform="translate(-10.961 -18.051)"/>
      <path d="M343.286,188.01a3.931,3.931,0,0,1-1.726,3.034,6.546,6.546,0,0,1-4.379,1.052c-4.411-.268-6.314-3.1-6.084-6.9l.055-.894c.231-3.825,2.721-6.532,6.687-6.292,4.161.252,5.888,3.187,5.664,6.873l-.069,1.145-9.717-.589-.013.195c-.141,2.345.934,4.036,3.642,4.2,2.206.134,3.388-.888,3.462-2.089l0-.055,2.484.15Zm-9.441-4.216,7.037.427c.053-2.267-.861-3.835-3.207-3.978C335.441,180.107,334.1,181.483,333.845,183.794Z" transform="translate(-10.961 -18.051)"/>
      <path d="M347.5,179.077l2.371.194-.043,3.28c.963-1.83,2.511-3.277,4.855-3.086.418.034.747.117,1.107.174l-.222,2.733a5.568,5.568,0,0,0-1.243-.242,4.232,4.232,0,0,0-3.075.873,3.554,3.554,0,0,0-1.442,2.549l-.57,7.026-2.817-.228Z" transform="translate(-10.961 -18.051)"/>
      <path d="M357.047,179.866l2.984.254L363,190.7l.057,0,4.69-9.931,2.871.244-6.488,12.9-2.87-.245Z" transform="translate(-10.961 -18.051)"/>
      <path d="M373.3,181.234l2.845.22-1.026,13.271-2.844-.22Zm.3-5.278,3.067.237-.205,2.649-3.066-.238Z" transform="translate(-10.961 -18.051)"/>
      <path d="M388.321,190.853v-.029l2.6.154-.015.279c-.151,2.54-2.242,4.743-5.983,4.522-4.1-.242-6.213-2.971-5.974-7.019l.045-.754c.237-4.021,2.792-6.532,6.786-6.3,3.713.218,5.534,2.595,5.381,5.191l-.018.308-2.6-.153,0-.057a2.771,2.771,0,0,0-2.931-3.03c-2.374-.139-3.7,1.491-3.852,4.032l-.064,1.089c-.15,2.54.98,4.288,3.326,4.426A2.794,2.794,0,0,0,388.321,190.853Z" transform="translate(-10.961 -18.051)"/>
      <path d="M405.962,192a3.928,3.928,0,0,1-1.587,3.108,6.547,6.547,0,0,1-4.329,1.246c-4.418-.069-6.445-2.815-6.385-6.619l.014-.894c.063-3.832,2.428-6.648,6.4-6.585,4.167.066,6.024,2.921,5.964,6.612l-.017,1.147-9.733-.154,0,.2c-.037,2.349,1.112,3.99,3.826,4.033,2.208.034,3.345-1.039,3.363-2.241l0-.056,2.488.039Zm-9.618-3.789,7.047.112c-.048-2.267-1.031-3.793-3.38-3.831C397.774,184.461,396.493,185.9,396.344,188.215Z" transform="translate(-10.961 -18.051)"/>
      <path d="M409.011,191.888l-.019-.419,2.429-.117.014.279c.072,1.48,1.241,2.516,3.588,2.4,1.9-.091,2.952-.926,2.9-2.071-.051-1.034-.8-1.5-3.593-1.9-3.518-.417-5.191-1.4-5.3-3.663-.109-2.235,1.815-4.148,5.25-4.314,3.6-.174,5.617,1.493,5.739,4.035l.016.307-2.431.117-.008-.167c-.071-1.453-1.231-2.32-3.271-2.222-1.676.08-2.784.918-2.735,1.951s1,1.493,3.59,1.844c3.6.414,5.245,1.369,5.36,3.744.114,2.347-1.865,4.262-5.469,4.436C411.017,196.327,409.136,194.458,409.011,191.888Z" transform="translate(-10.961 -18.051)"/>
    </g>
  </g>
</svg>
