<svg xmlns="http://www.w3.org/2000/svg" width="616.758" height="307.243" viewBox="0 0 616.758 307.243">
  <title>Asset 33</title>
  <g>
    <path d="M117.95,38.637c11.119-22.573,40.8-27.031,65.909-28.611,23.319-1.466,48.614-2.42,67.872,10.811,19.617,13.477,28.016,39.956,23.158,63.255s-21.361,43.11-41.643,55.564a312.59,312.59,0,0,0,87.123-3.9c11.338-2.121,23.539-4.778,34,.074s15.825,21.137,6.494,27.917a662.818,662.818,0,0,1-121.5,7.832c24.576,50.869,95.726,63.017,125.044,111.308-18-1.62-28.733,24.1-46.8,24.35-5.994.082-11.588-2.774-16.9-5.558l-96.418-50.57c-4.977-2.61-10.155-5.278-15.768-5.564-7.381-.375-14.262,3.395-20.685,7.05l-49.229,28.012C105.3,288.187,91.025,296,75.729,295.18s-30.906-14.317-27.92-29.34l61.738-49.428c11.483-9.193,24.083-20.753,23.219-35.436L.058,184.525Q.028,171.039,0,157.551c31.862,1.311,92.325,12,110.331-18.651C125.917,112.373,103.592,67.785,117.95,38.637Z" fill="#bdccd4"/>
    <path d="M369.031,29.423C380.15,6.851,409.827,2.392,434.94.813c23.319-1.466,48.614-2.42,67.872,10.81C522.428,25.1,530.828,51.58,525.97,74.879s-21.362,43.11-41.644,55.563a312.522,312.522,0,0,0,87.124-3.9c11.337-2.12,23.538-4.777,34,.075s15.825,21.137,6.494,27.917a662.911,662.911,0,0,1-121.5,7.832c24.576,50.868,95.726,63.017,125.043,111.308-18-1.62-28.732,24.1-46.8,24.35-5.994.082-11.587-2.774-16.9-5.559L455.375,241.9c-4.977-2.61-10.156-5.278-15.769-5.564-7.38-.376-14.262,3.395-20.685,7.049L369.693,271.4c-13.314,7.575-27.588,15.392-42.883,14.569S295.9,271.65,298.89,256.626L360.628,207.2c11.482-9.193,24.083-20.753,23.219-35.437l-132.709,3.549-.057-26.973c31.861,1.311,92.324,12,110.331-18.652C377,103.159,354.673,58.571,369.031,29.423Z" fill="#bdccd4"/>
  </g>
</svg>
