<svg xmlns="http://www.w3.org/2000/svg" width="622.56" height="622.56" viewBox="0 0 622.56 622.56">
  <title>Asset 38</title>
  <g>
    <path d="M179.99,591.394c1.6-26.981,20.636-50.234,43.084-65.289s48.462-23.683,73.117-34.76a391.46,391.46,0,0,0,115.1-79.1c27.081-26.894,50.59-58.574,61.548-95.133,16.386-54.667,3.161-113.617-14.482-167.891A1062.213,1062.213,0,0,0,407.229,20.973a188.712,188.712,0,0,1-83.577,109.945c-30.16,18.15-65.16,27.608-94.06,47.7C188.923,206.9,164.35,253.893,153.2,302.156s-10.29,98.382-9.376,147.92c.578,31.306,18.51,45.987,24.493,73.288,4.832,22.046-4.356,37.417-9.918,58.678C160.413,583.307,180,591.253,179.99,591.394Z" fill="#22b573"/>
    <rect width="622.56" height="622.56" fill="none"/>
  </g>
</svg>
