<svg xmlns="http://www.w3.org/2000/svg" width="262.967" height="445.157" viewBox="0 0 262.967 445.157">
  <title>Asset 2</title>
  <g>
    <path d="M45.239,445.157c1.251-21.056,16.1-39.2,33.622-50.951s37.82-18.483,57.061-27.128a305.5,305.5,0,0,0,89.825-61.731c21.134-20.988,39.481-45.711,48.032-74.242,12.787-42.662,2.467-88.666-11.3-131.022A828.94,828.94,0,0,0,222.576,0a147.269,147.269,0,0,1-65.223,85.8c-23.537,14.165-50.851,21.545-73.405,37.228C52.21,145.1,33.033,181.771,24.335,219.436S16.3,296.213,17.018,334.872c.451,24.431,14.445,35.889,19.114,57.195,3.771,17.2-3.4,29.2-7.74,45.791C29.961,438.846,45.245,445.047,45.239,445.157Z" transform="translate(-16.633)" fill="#22b573"/>
    <g>
      <path d="M44.774,236.3l.4-2.369,3.3.328c-1.759-1.128-3.08-2.815-2.684-5.158.07-.418.182-.743.271-1.1l2.733.462a5.555,5.555,0,0,0-.351,1.231,4.273,4.273,0,0,0,.611,3.171A3.587,3.587,0,0,0,51.5,234.54l7.027,1.189-.477,2.816Z" transform="translate(-16.633)"/>
      <path d="M50.366,215.3a6.667,6.667,0,0,1,5.077-.642l1.1.251a6.214,6.214,0,0,1,4.948,7.828,6.509,6.509,0,0,1-2.793,4.238,6.329,6.329,0,0,1-5.035.711l-1.131-.259A6.5,6.5,0,0,1,48.25,224.6a7.18,7.18,0,0,1,2.116-9.3Zm2.495,9.3,1.683.384a3.65,3.65,0,0,0,4.717-2.756c.5-2.179-.749-3.971-3.066-4.5l-1.682-.383c-2.289-.522-4.246.426-4.767,2.715S50.572,224.082,52.861,224.6Z" transform="translate(-16.633)"/>
      <path d="M55.072,199.676a6.649,6.649,0,0,1,5.115-.186l1.076.349a6.213,6.213,0,0,1,4.229,8.238,6.513,6.513,0,0,1-3.161,3.972,6.334,6.334,0,0,1-5.078.257l-1.1-.358a6.5,6.5,0,0,1-4.015-3.205,7.177,7.177,0,0,1,2.938-9.067Zm1.654,9.486,1.641.532a3.651,3.651,0,0,0,4.945-2.323c.689-2.126-.391-4.022-2.652-4.754l-1.641-.533c-2.233-.722-4.266.046-4.991,2.278S54.492,208.438,56.726,209.162Z" transform="translate(-16.633)"/>
      <path d="M53.4,184.033l1.977.847-.469,1.093c-.769,1.793-.294,2.767,1.059,3.346l1.534.658,1.471-3.432,2,.858L59.5,190.834l10.375,4.447-1.114,2.6-10.375-4.447-.992,2.314-2-.859.992-2.314-1.613-.691c-2.47-1.059-3.425-3.068-2.043-6.292Z" transform="translate(-16.633)"/>
      <path d="M59.525,185.364l1.133-2.152-2.552-1.345.68-2.869,3.2,1.687,1.963-3.729,1.927,1.015L63.915,181.7l5.756,3.031c1.777.935,2.618.674,3.514-1.026l.408-.776,1.9,1-.738,1.4c-1.489,2.826-3.364,3.534-5.991,2.151l-6.181-3.256-1.133,2.152Z" transform="translate(-16.633)"/>
      <path d="M72.913,165.811a6.656,6.656,0,0,1,4.956,1.275l.933.64a6.211,6.211,0,0,1,1.715,9.1,6.513,6.513,0,0,1-4.158,2.91,6.331,6.331,0,0,1-4.942-1.2l-.955-.656a6.5,6.5,0,0,1-2.941-4.212,7.177,7.177,0,0,1,5.392-7.859Zm-1.107,9.563,1.422.976a3.646,3.646,0,0,0,5.4-.823c1.265-1.841.768-3.966-1.191-5.309l-1.423-.977c-1.936-1.327-4.1-1.169-5.431.768S69.869,174.046,71.806,175.374Z" transform="translate(-16.633)"/>
      <path d="M75.905,159.718l1.67-1.73,2.051,1.663a5.547,5.547,0,0,1,1.3-5.626,4.885,4.885,0,0,1,3.972-1.634,6.627,6.627,0,0,1,4.219,2.024l1.283,1.237a6.6,6.6,0,0,1,2.157,4.161,4.974,4.974,0,0,1-1.486,4.071A5.433,5.433,0,0,1,86,165.476l4.786,4.615L88.8,172.149Zm4.929-.79a4.205,4.205,0,0,0,1.374,2.936l1,.962a4.119,4.119,0,0,0,2.984,1.266,3.617,3.617,0,0,0,2.7-1.089c1.551-1.61,1.151-3.764-.5-5.354l-1.182-1.139c-1.691-1.629-3.816-1.91-5.368-.3A3.644,3.644,0,0,0,80.834,158.928Z" transform="translate(-16.633)"/>
      <path d="M93.046,144.013l2.034-1.335L93.5,140.265l1.985-2.183,1.988,3.028,3.524-2.314,1.2,1.821-3.524,2.314,3.571,5.439c1.1,1.68,1.965,1.858,3.573.8l.733-.481,1.181,1.8-1.325.871c-2.673,1.754-4.656,1.465-6.286-1.018L96.275,144.5l-2.034,1.336Z" transform="translate(-16.633)"/>
      <path d="M118.766,139.712a3.973,3.973,0,0,1,.142,3.526,6.621,6.621,0,0,1-3.2,3.245c-3.928,2.13-7.075.715-8.908-2.666l-.432-.8c-1.847-3.408-1.158-7.063,2.373-8.977,3.7-2.007,6.757-.414,8.536,2.869l.552,1.019-8.652,4.691.094.174c1.133,2.088,2.959,2.965,5.371,1.657,1.964-1.064,2.432-2.574,1.853-3.642l-.027-.051,2.213-1.2Zm-10.356,1.432,6.266-3.4c-1.166-1.973-2.789-2.83-4.878-1.7C107.81,137.126,107.392,139.026,108.41,141.144Z" transform="translate(-16.633)"/>
      <path d="M117.531,129.891l2.131-1.113L121.4,131.6c-.164-2.083.381-4.155,2.487-5.255.375-.2.7-.3,1.041-.448l1.284,2.456a5.65,5.65,0,0,0-1.194.463,4.287,4.287,0,0,0-2.158,2.405,3.59,3.59,0,0,0,.141,2.956l3.3,6.317-2.532,1.322Z" transform="translate(-16.633)"/>
      <path d="M127.36,124.713l2.073-1.218,1.87,2.74c-.266-2.074.176-4.17,2.225-5.372.366-.214.687-.337,1.018-.5l1.4,2.389a5.686,5.686,0,0,0-1.17.523,4.273,4.273,0,0,0-2.036,2.507,3.591,3.591,0,0,0,.286,2.947l3.608,6.146-2.464,1.445Z" transform="translate(-16.633)"/>
      <path d="M147.333,128.23c-1.975,1.562-3.976,1.449-5.38-.326a3.439,3.439,0,0,1-.4-3.974c.595-1.3,2-2.99,4.545-5.29l-.509-.643c-1.07-1.354-2.372-1.588-3.948-.342-1.487,1.176-1.786,2.532-.856,3.708l.106.132-2.019,1.6-.158-.2c-1.545-1.952-1.468-4.683,1.572-7.087,2.951-2.335,5.565-1.949,7.53.537l3.3,4.172c.861,1.086,1.3,1.1,2.319.33l1.14,1.443-.821.65c-1.486,1.175-2.646,1.443-4.109,0A5.846,5.846,0,0,1,147.333,128.23Zm-.519-2.115c1.665-1.316,2.16-3.837,1.108-5.168l-.861-1.087a15.219,15.219,0,0,0-3.281,3.786,1.989,1.989,0,0,0,.207,2.361C144.689,126.893,145.66,127.028,146.814,126.115Z" transform="translate(-16.633)"/>
      <path d="M160.209,109.747l-.02-.021,1.883-1.835.2.2c1.8,1.842,2.018,4.905-.7,7.551-2.976,2.9-6.452,2.618-9.315-.318l-.533-.547c-2.843-2.915-2.977-6.536-.082-9.36,2.692-2.626,5.709-2.368,7.545-.485l.217.223-1.883,1.835-.04-.039a2.8,2.8,0,0,0-4.26.126c-1.721,1.679-1.408,3.782.389,5.623l.77.79c1.8,1.844,3.871,2.189,5.572.531A2.825,2.825,0,0,0,160.209,109.747Z" transform="translate(-16.633)"/>
      <path d="M173.618,98.376a3.972,3.972,0,0,1,.909,3.41,6.623,6.623,0,0,1-2.41,3.864c-3.368,2.937-6.749,2.244-9.276-.655l-.595-.683c-2.546-2.921-2.673-6.638.355-9.278,3.177-2.769,6.5-1.88,8.957.935l.762.874-7.42,6.468.13.15c1.562,1.791,3.534,2.246,5.6.444,1.684-1.469,1.812-3.043,1.013-3.959l-.037-.043,1.9-1.655Zm-9.793,3.659,5.372-4.683c-1.568-1.672-3.34-2.155-5.131-.593C162.36,98.246,162.368,100.192,163.825,102.035Z" transform="translate(-16.633)"/>
    </g>
  </g>
</svg>
