<svg xmlns="http://www.w3.org/2000/svg" width="459.378" height="444.867" viewBox="0 0 459.378 444.867">
  <title>Asset 14</title>
  <path d="M173.519,5.723c14.729-5.82,34.638-10.278,43.8,2.64,4.25,6,4.408,13.874,4.4,21.222l-.051,116.126,84.818-96.076c15.535-17.6,41.223-36.456,59.571-21.817,4.234,22.834-14.433,42.9-31.531,58.613l-87.082,80.04c5.218,9.645,18.342,12.378,28.949,9.6s19.553-9.681,28.9-15.42c39.214-24.083,90.038-28.156,132.587-10.625,7.94,3.272,16.146,7.8,19.685,15.625,8.9,19.68-16.787,36.69-37.666,42.22a557.931,557.931,0,0,1-117.784,18.022c44.714,12.522,91.435,26.168,124.7,58.568,12.426,12.1,23.114,29.161,18.688,45.933-7.527,28.522-48.054,29.839-75.8,19.82A247.926,247.926,0,0,1,253.81,262.894l16.219,89.993c3.089,17.143,6.181,34.747,2.962,51.867s-14.178,33.913-30.858,38.935c-4.641,1.4-9.809,1.8-14.229-.187-8.2-3.689-10.922-13.769-12.684-22.584L186.536,277.447c-8.414,35.182-17.074,70.979-35.6,102.047s-48.8,57.243-84.7,61.713c-11.475-34.719-4.525-73.578,12.026-106.184s41.951-59.835,68.514-84.966a298.21,298.21,0,0,1-99.209-8.808c-25.678-6.741-55.942-28.618-45.418-52.991,41.943-11.806,126.659-8.307,157.04-41.417C180.412,123.708,161.817,10.346,173.519,5.723Z" fill="#3fa9f5"/>
</svg>
