<svg xmlns="http://www.w3.org/2000/svg" width="537.82" height="440.583" viewBox="0 0 537.82 440.583">
  <title>Asset 10</title>
  <g>
    <path d="M12.032,320.5c16.277-24.188,45.465-36.141,65.822-57.011,46.54-47.713,38.588-131.439,86.451-177.825,33.571-32.536,86.231-37.927,121.386-68.746C292.053,11.344,298,4.841,305.913,1.852c20.689-7.815,40.939,11.236,62.122,17.59,12.178,3.653,25.179,3.018,37.777,4.726,43,5.828,78.346,39.053,98.259,77.609S531.037,184.035,537.82,226.9c-29.054,20.913-58.2,41.9-84.309,66.4-17.378,16.3-33.425,34.173-52.576,48.353-22.275,16.494-48.051,27.486-73.56,38.327-86.658,36.83-145.293,78.561-238.522,52.457C22.105,413.739-22.634,372.021,12.032,320.5Z" fill="#f7931e"/>
    <g>
      <path d="M154.465,143.7l1.416-2.481,7.346,4.193a5.35,5.35,0,0,1,.008-5.435c1.64-2.874,4.914-3.416,8.01-1.649l1.6.911c3.071,1.753,4.276,4.949,2.649,7.8a4.7,4.7,0,0,1-2.262,2.194,8.9,8.9,0,0,1-2.558.657l1.988,1.427-1.193,2.088Zm9.888,1.052a4.207,4.207,0,0,0,2.054,2.507l1.2.688a4.113,4.113,0,0,0,3.2.493,3.62,3.62,0,0,0,2.35-1.721c1.108-1.94.191-3.929-1.8-5.065l-1.425-.813c-2.039-1.164-4.168-.914-5.276,1.027A3.645,3.645,0,0,0,164.353,144.755Z"/>
      <path d="M168.382,131.954l1.606-2.363,7.181,4.881a2.526,2.526,0,0,0,3.788-.64,3.846,3.846,0,0,0-.786-5.185l-6.526-4.436,1.6-2.362,11.135,7.568-1.367,2.011-2.365-1.3a5.834,5.834,0,0,1-.344,5.888c-1.542,2.269-4.032,2.662-6.371,1.072Z"/>
      <path d="M174.112,114.606l1.933-2.439,2.107,1.67-1.934,2.439Zm4.261,3.233,1.792-2.261,10.554,8.367-1.793,2.262Z"/>
      <path d="M178.77,107.717l1.908-2.165L195.366,118.5l-1.908,2.165Z"/>
      <path d="M191.358,94.807l2.077-1.96,13.432,14.233-1.77,1.67-1.948-1.778a5.592,5.592,0,0,1-1.583,5.576,4.811,4.811,0,0,1-4.041,1.4,6.573,6.573,0,0,1-4.117-2.219l-1.2-1.276a6.662,6.662,0,0,1-1.977-4.279,4.888,4.888,0,0,1,1.675-3.952,5.5,5.5,0,0,1,5.141-1.391Zm2.922,13.769,1.125,1.193c1.611,1.707,3.72,2.088,5.345.555a3.63,3.63,0,0,0,1.139-2.708,4.075,4.075,0,0,0-1.234-2.957l-.971-1.028a4.183,4.183,0,0,0-2.9-1.424,3.706,3.706,0,0,0-2.75,1C192.41,104.74,192.668,106.869,194.28,108.576Z"/>
      <path d="M198.532,89.812,201,87.923l1.631,2.136-2.471,1.888Zm3.334,4.179,2.293-1.751,8.171,10.7-2.293,1.751Z"/>
      <path d="M208.536,88.941l2.069-1.226,1.589,2.182a5.818,5.818,0,0,1,2.852-5.175c2.361-1.4,4.768-.721,6.21,1.713l4.658,7.861-2.483,1.471L219,88.3a2.5,2.5,0,0,0-3.7-1.03,3.8,3.8,0,0,0-1.482,4.99l4.037,6.814-2.458,1.457Z"/>
      <path d="M235.787,95.271c-4.347,1.619-6.816,1.392-7.477-.384-.435-1.166.243-2.263,2.1-3.348l-.02-.054c-1.457.061-2.565-.161-2.931-1.141-.355-.955.319-1.9,1.536-2.926a4.068,4.068,0,0,1-3.459-2.726l-.129-.345c-.948-2.544.657-5.043,3.864-6.237a6.84,6.84,0,0,1,2.212-.462c1.017-.591,1.608-1.113,1.762-1.592a2.516,2.516,0,0,0-.129-1.642l1.961-.731a3.1,3.1,0,0,1,.6.955c.484,1.3-.323,2.293-2.249,3.282a3.76,3.76,0,0,1,2.925,2.5l.108.291c.938,2.518-.517,4.931-3.91,6.2a10.2,10.2,0,0,1-2.13.521c-.941.714-1.094,1.193-.976,1.511.247.663,1.886.444,3.927-.315l.451-.168c4.425-1.649,6.533-1.015,7.283,1C241.886,91.551,240.028,93.692,235.787,95.271Zm-1.86-13.583-.188-.5c-.523-1.405-1.9-2.011-3.778-1.31-1.908.711-2.533,2.03-2.009,3.435l.187.5c.524,1.4,1.869,2.02,3.777,1.309C233.8,84.423,234.45,83.093,233.927,81.688Zm4.955,8.929c-.345-.927-1.811-.894-4.675.172l-.4.148c-2.544.948-3.562,2.022-3.247,2.87.326.874,1.822.921,4.685-.146C238,92.634,239.238,91.571,238.882,90.617Z"/>
      <path d="M245.457,67.506l2.818-.463,1.373,8.344a5.348,5.348,0,0,1,4.225-3.418c3.265-.537,5.748,1.662,6.327,5.179l.3,1.814c.574,3.488-1.148,6.438-4.385,6.97a4.7,4.7,0,0,1-3.128-.373,8.909,8.909,0,0,1-2.122-1.572l.143,2.442-2.372.39Zm5.413,8.339a4.215,4.215,0,0,0-.653,3.175l.225,1.367a4.116,4.116,0,0,0,1.636,2.8,3.613,3.613,0,0,0,2.816.741c2.2-.363,3.172-2.328,2.8-4.588l-.267-1.619c-.381-2.317-1.917-3.812-4.122-3.449A3.644,3.644,0,0,0,250.87,75.845Z"/>
      <path d="M262.822,71.058l2.826-.412,1.251,8.591a2.525,2.525,0,0,0,3.03,2.36,3.843,3.843,0,0,0,3.292-4.08l-1.137-7.808,2.828-.411,1.938,13.32-2.406.351-.639-2.622a5.83,5.83,0,0,1-4.573,3.723c-2.715.4-4.687-1.175-5.094-3.973Z"/>
      <path d="M285.092,60.776l.589,2.067-1.142.326c-1.877.535-2.333,1.518-1.93,2.932l.457,1.606,6.393-1.822-.48-1.687c-.736-2.585.222-4.593,3.6-5.554l1.633-.465.588,2.068-1.142.325c-1.877.535-2.333,1.518-1.93,2.933l.457,1.6,3.592-1.023.6,2.094-3.592,1.024,3.094,10.855-2.721.775L290.057,67.98,283.664,69.8l3.092,10.856-2.72.775-3.093-10.855-2.422.689-.6-2.094,2.421-.69-.48-1.687c-.737-2.585.221-4.593,3.594-5.554Z"/>
      <path d="M306.263,73.822c-2.288,1.049-4.2.465-5.146-1.592a3.437,3.437,0,0,1,.551-3.955c.887-1.122,2.652-2.428,5.669-4.059L307,63.47c-.719-1.568-1.928-2.1-3.754-1.267-1.723.79-2.334,2.034-1.71,3.4l.071.155-2.34,1.071-.106-.231c-1.036-2.263-.315-4.9,3.208-6.509,3.42-1.567,5.866-.573,7.185,2.307l2.215,4.834c.577,1.259,1,1.375,2.172.871l.766,1.671-.952.436c-1.722.789-2.911.774-3.991-.971A5.84,5.84,0,0,1,306.263,73.822Zm0-2.176c1.929-.884,3.008-3.214,2.3-4.756l-.577-1.26a15.235,15.235,0,0,0-4.085,2.9,1.989,1.989,0,0,0-.359,2.342C304.013,71.9,304.924,72.258,306.261,71.646Z"/>
      <path d="M309.33,50.562l2.644-1.155,7.835,17.94L317.165,68.5Z"/>
      <path d="M329.665,50.985a6.652,6.652,0,0,1,3.137,4.042l.346,1.078a6.215,6.215,0,0,1-4.218,8.243,6.512,6.512,0,0,1-5.068-.246,6.327,6.327,0,0,1-3.175-3.972l-.355-1.1a6.506,6.506,0,0,1,.256-5.131,7.178,7.178,0,0,1,9.077-2.91Zm-6.734,6.881.526,1.643a3.65,3.65,0,0,0,4.773,2.657c2.128-.682,3.036-2.666,2.31-4.929l-.526-1.642c-.717-2.235-2.528-3.437-4.764-2.72S322.214,55.631,322.931,57.866Z"/>
    </g>
  </g>
</svg>
