<svg xmlns="http://www.w3.org/2000/svg" width="295.102" height="487.477" viewBox="0 0 295.102 487.477">
  <title>Asset 3</title>
  <g>
    <path d="M212.808,416.562c-12.333-29.4-3.4-63.66,11.828-91.671s36.408-52.514,50.851-80.936c31.33-61.65,25.51-142.44-20.2-194.333S124.455-16.986,67.614,22.4C18.037,56.755-2.027,121.887.16,182.163c.715,19.7,3.586,39.817,13,57.132,13.71,25.214,39.351,41.33,58.384,62.811,27.768,31.34,40.853,75.175,34.808,116.608-3.917,26.851,11.223,59.449,37.367,66.715,18.476,5.135,39.1.334,54.357-11.28C214.086,461.965,220.591,435.114,212.808,416.562Z" fill="#fcee21"/>
    <g>
      <path d="M14.888,154.711l.829-2.729,18.521,5.628-.829,2.729Z"/>
      <path d="M17.867,147.718l.966-2.92,2.522.833-.965,2.921Zm5.053,1.552.895-2.708,12.638,4.176-.9,2.709Z"/>
      <path d="M43.982,143.143c-1.572,4.308-3.327,6.02-5.087,5.379-1.157-.422-1.547-1.636-1.17-3.732l-.053-.019c-.89,1.134-1.768,1.827-2.74,1.472-.946-.345-1.224-1.459-1.216-3.034a4.02,4.02,0,0,1-4.27.855l-.342-.125c-2.522-.92-3.373-3.731-2.213-6.91a6.774,6.774,0,0,1,1.072-1.961,3.647,3.647,0,0,0-.067-2.346,2.477,2.477,0,0,0-1.318-.957l.709-1.945a3.026,3.026,0,0,1,1.1.164c1.288.469,1.518,1.714,1.027,3.8a3.72,3.72,0,0,1,3.759-.594l.289.1c2.5.911,3.378,3.555,2.151,6.918a10.071,10.071,0,0,1-.974,1.938c-.068,1.165.2,1.589.509,1.7.658.24,1.545-1.133,2.283-3.156l.163-.448c1.6-4.387,3.429-5.566,5.427-4.838C45.1,136.166,45.515,138.939,43.982,143.143Zm-11.413-7.318-.5-.182c-1.393-.508-2.729.136-3.409,2-.69,1.892-.1,3.209,1.294,3.718l.5.181c1.393.509,2.719-.109,3.409-2C34.544,137.676,33.962,136.333,32.569,135.825Zm9.9,2c-.92-.336-1.836.789-2.871,3.627l-.143.394c-.92,2.522-.766,3.977.074,4.284.868.316,1.863-.779,2.9-3.617C43.421,139.782,43.413,138.172,42.467,137.827Z"/>
      <path d="M25.064,125.391l1.045-2.624,7.822,3.114a5.579,5.579,0,0,1-.7-5.489c1-2.521,3.3-3.444,5.9-2.409l8.394,3.341-1.055,2.651L38.482,120.8a2.471,2.471,0,0,0-3.519,1.429,3.752,3.752,0,0,0,1.852,4.8l7.276,2.9-1.045,2.624Z"/>
      <path d="M36.268,113.714l.917-2.223L34.548,110.4l.406-2.889,3.308,1.366,1.59-3.852,1.99.821L40.253,109.7l5.945,2.453c1.835.757,2.638.423,3.364-1.334l.33-.8,1.965.811-.6,1.448c-1.2,2.92-2.985,3.789-5.7,2.669l-6.385-2.634-.917,2.222Z"/>
      <path d="M36.134,100.2l1.183-2.84,2.453,1.022-1.183,2.84Zm4.923,1.93,1.1-2.634,12.289,5.121-1.1,2.633Z"/>
      <path d="M43.936,95.115l.987-2.163,2.523.874a5.755,5.755,0,0,1-.608-5.812c1.126-2.469,3.464-3.278,6.009-2.117l8.22,3.75-1.184,2.6-7.814-3.565a2.471,2.471,0,0,0-3.585,1.255A3.752,3.752,0,0,0,50.1,94.821l7.126,3.251-1.173,2.57Z"/>
      <path d="M69.444,83.941c-2.325,3.953-4.361,5.319-5.976,4.37-1.061-.624-1.226-1.889-.476-3.882l-.048-.028c-1.081.955-2.069,1.477-2.961.952-.868-.51-.94-1.656-.647-3.2a4.02,4.02,0,0,1-4.354.067l-.314-.184c-2.314-1.36-2.643-4.279-.927-7.2A6.762,6.762,0,0,1,55.15,73.1a3.648,3.648,0,0,0,.358-2.321A2.485,2.485,0,0,0,54.385,69.6l1.049-1.784a3.048,3.048,0,0,1,1.053.36c1.182.695,1.183,1.961.323,3.921a3.713,3.713,0,0,1,3.8.1l.266.155c2.29,1.347,2.679,4.106.865,7.192a10.115,10.115,0,0,1-1.309,1.729c-.277,1.134-.1,1.6.193,1.768.6.355,1.725-.835,2.816-2.692l.241-.409c2.367-4.027,4.379-4.855,6.212-3.778C71.8,77.281,71.712,80.083,69.444,83.941Zm-9.9-9.261-.458-.269c-1.278-.752-2.708-.36-3.715,1.352-1.021,1.736-.677,3.138.6,3.889l.458.27c1.278.751,2.694.383,3.715-1.352C61.15,76.858,60.821,75.431,59.543,74.68Zm9.373,3.759c-.845-.5-1.949.444-3.48,3.048l-.212.361c-1.361,2.315-1.473,3.774-.7,4.227.8.468,1.972-.429,3.5-3.033C69.5,80.534,69.783,78.949,68.916,78.439Z"/>
      <path d="M60.046,55.727l2.01-1.985,5.877,5.95a5.29,5.29,0,0,1,1.455-5.173c2.328-2.3,5.589-1.943,8.066.564l1.277,1.293c2.457,2.487,2.752,5.851.444,8.131a4.648,4.648,0,0,1-2.738,1.486,8.81,8.81,0,0,1-2.61-.055l1.511,1.887L73.647,69.5Zm9.135,3.636A4.163,4.163,0,0,0,70.468,62.3l.963.975A4.071,4.071,0,0,0,74.349,64.6a3.577,3.577,0,0,0,2.7-1.012c1.572-1.553,1.229-3.69-.363-5.3l-1.139-1.154c-1.632-1.652-3.726-1.981-5.3-.429A3.607,3.607,0,0,0,69.181,59.363Z"/>
      <path d="M77.676,47.825l2.385-1.515,4.6,7.247a2.5,2.5,0,0,0,3.689.9,3.8,3.8,0,0,0,1.32-5.014L85.49,42.86l2.384-1.515,7.14,11.236-2.031,1.29-1.637-2.107a5.767,5.767,0,0,1-2.62,5.21c-2.29,1.455-4.7.836-6.2-1.525Z"/>
      <path d="M97.981,30.01l.818,1.963-1.085.452c-1.781.742-2.114,1.759-1.555,3.1l.635,1.524,6.067-2.529-.667-1.6c-1.022-2.453-.314-4.536,2.887-5.87l1.549-.645.818,1.962-1.085.452c-1.781.742-2.114,1.76-1.555,3.1l.634,1.524,3.409-1.42.828,1.987-3.408,1.42,4.292,10.3-2.581,1.076-4.293-10.3-6.067,2.528,4.292,10.3-2.581,1.075-4.293-10.3-2.3.958-.828-1.989,2.3-.957-.667-1.6c-1.022-2.453-.314-4.535,2.887-5.869Z"/>
      <path d="M118.9,43.323c-2.395.682-4.181-.176-4.793-2.329a3.4,3.4,0,0,1,1.133-3.783c1.034-.963,2.956-1.976,6.15-3.118l-.222-.78c-.468-1.641-1.57-2.345-3.479-1.8-1.8.514-2.588,1.639-2.182,3.065l.046.161-2.448.7-.069-.242c-.674-2.367.427-4.833,4.113-5.882,3.578-1.019,5.82.32,6.678,3.333l1.44,5.057c.375,1.318.775,1.5,1.993,1.178l.5,1.748-1,.284c-1.8.513-2.963.32-3.757-1.548A5.777,5.777,0,0,1,118.9,43.323Zm.324-2.128c2.018-.575,3.422-2.69,2.963-4.3l-.376-1.319a15.11,15.11,0,0,0-4.428,2.221,1.966,1.966,0,0,0-.7,2.236C116.987,41.105,117.824,41.593,119.223,41.2Z"/>
      <path d="M126.3,21.2l2.794-.575,3.9,18.954-2.793.575Z"/>
      <path d="M145.688,25.608a6.578,6.578,0,0,1,2.321,4.5l.142,1.11a6.144,6.144,0,0,1-5.587,7.253,6.437,6.437,0,0,1-4.883-1.153,6.255,6.255,0,0,1-2.37-4.434l-.146-1.137a6.433,6.433,0,0,1,1.174-4.942,7.1,7.1,0,0,1,9.349-1.193ZM137.9,31.084l.216,1.692a3.687,3.687,0,1,0,7.3-.931l-.216-1.692c-.294-2.3-1.838-3.8-4.14-3.5S137.607,28.781,137.9,31.084Z"/>
      <path d="M150.585,18.571l3.21-.174.135,2.486c.177,3.267-1.085,4.791-3.7,5.633l-.05-.922a4.448,4.448,0,0,0,1.735-1.578,4.2,4.2,0,0,0,.306-2.117l-1.452.079Z"/>
      <path d="M156.305,32.7l0-.42,2.433.017,0,.28c-.01,1.482,1.1,2.581,3.45,2.6,1.9.013,3-.762,3.006-1.909.008-1.035-.716-1.544-3.481-2.094-3.492-.613-5.107-1.687-5.09-3.952.015-2.238,2.042-4.042,5.482-4.018,3.608.026,5.525,1.8,5.507,4.347l0,.308-2.433-.017v-.168c.011-1.454-1.1-2.386-3.143-2.4-1.679-.012-2.831.763-2.838,1.8s.912,1.545,3.482,2.039c3.575.612,5.162,1.658,5.146,4.036-.017,2.349-2.1,4.153-5.708,4.127C158.063,37.239,156.287,35.269,156.305,32.7Z"/>
    </g>
    <g>
      <path d="M170.833,364.34l-.01-3.077,2.657-.009.01,3.077Zm5.286-.13-.01-2.852,13.314-.044.009,2.853Z"/>
      <path d="M189.348,354.866l-.524,2.776-13.081-2.47.441-2.336,2.63.24c-1.509-1.507-2.4-3.128-1.978-5.353a3.928,3.928,0,0,1,3.435-3.421,5.86,5.86,0,0,1-1.78-5.346c.5-2.637,2.535-3.932,5.256-3.419l8.931,1.687L192.154,340l-8.491-1.6a2.364,2.364,0,0,0-3.1,1.948,3.64,3.64,0,0,0,2.728,4.243l7.722,1.458-.524,2.776-8.492-1.6a2.364,2.364,0,0,0-3.1,1.948,3.64,3.64,0,0,0,2.728,4.243Z"/>
      <path d="M196.032,331.984c-1.153,2.205-3,2.91-4.987,1.873a3.4,3.4,0,0,1-1.964-3.425c.013-1.413.6-3.5,1.97-6.606l-.718-.376c-1.512-.79-2.781-.475-3.7,1.285-.868,1.66-.591,3,.722,3.69l.149.077-1.18,2.255-.222-.116c-2.181-1.14-3.212-3.635-1.437-7.03,1.723-3.3,4.237-4,7.013-2.55l4.659,2.435c1.213.635,1.617.467,2.225-.634l1.61.841-.479.917c-.868,1.66-1.806,2.369-3.707,1.66A5.78,5.78,0,0,1,196.032,331.984Zm-1.32-1.7c.972-1.858.4-4.333-1.084-5.109l-1.214-.635a15.1,15.1,0,0,0-1.436,4.74,1.962,1.962,0,0,0,1.139,2.045C193.108,331.843,194.038,331.572,194.712,330.283Z"/>
      <path d="M208.367,320.428c-2.75,3.671-4.926,4.8-6.426,3.678-.984-.738-1.007-2.013-.041-3.909l-.044-.035c-1.181.829-2.221,1.238-3.049.618-.8-.6-.75-1.75-.287-3.256a4.021,4.021,0,0,1-4.335-.417l-.291-.218c-2.149-1.61-2.151-4.547-.122-7.255a6.77,6.77,0,0,1,1.594-1.567,3.654,3.654,0,0,0,.614-2.266,2.484,2.484,0,0,0-.986-1.3l1.241-1.656a3.043,3.043,0,0,1,1.008.475c1.1.822.957,2.081-.116,3.932a3.719,3.719,0,0,1,3.771.519l.246.184c2.127,1.593,2.206,4.379.06,7.244a10.11,10.11,0,0,1-1.493,1.573c-.4,1.1-.273,1.578,0,1.779.559.419,1.806-.639,3.1-2.362l.285-.381c2.8-3.738,4.893-4.338,6.594-3.064C211.451,314.072,211.05,316.846,208.367,320.428Zm-8.81-10.306-.426-.318c-1.186-.889-2.651-.658-3.842.931-1.208,1.612-1.022,3.044.164,3.932l.425.319c1.187.888,2.635.681,3.843-.931C200.912,312.466,200.743,311.012,199.557,310.122Zm8.9,4.779c-.783-.587-1.985.224-3.8,2.642l-.252.336c-1.61,2.149-1.883,3.586-1.167,4.123.739.554,2.008-.208,3.819-2.626C208.8,317.048,209.259,315.5,208.453,314.9Z"/>
      <path d="M196.339,298.362l1.99-2.347,2.026,1.718-1.989,2.346Zm4.1,3.332,1.845-2.176,10.154,8.606L210.6,310.3Z"/>
      <path d="M205.233,296.136l1.554-1.8,2.174,1.547a5.755,5.755,0,0,1,1.048-5.748c1.773-2.053,4.243-2.174,6.359-.346l6.836,5.9-1.865,2.159-6.5-5.613a2.472,2.472,0,0,0-3.793.2,3.75,3.75,0,0,0,.178,5.141l5.926,5.119-1.846,2.138Z"/>
      <path d="M228.413,289.557c-1.513,1.977-3.458,2.356-5.235,1a3.4,3.4,0,0,1-1.352-3.711c.254-1.391,1.19-3.352,3.069-6.176l-.644-.492c-1.355-1.037-2.66-.943-3.867.634-1.139,1.488-1.1,2.859.081,3.761l.134.1-1.547,2.023-.2-.154c-1.955-1.5-2.545-4.131-.216-7.175,2.261-2.955,4.859-3.22,7.347-1.317l4.177,3.2c1.089.833,1.515.737,2.3-.247l1.444,1.106-.629.821c-1.139,1.489-2.185,2.027-3.937,1A5.78,5.78,0,0,1,228.413,289.557Zm-1.011-1.9c1.275-1.666,1.137-4.2-.2-5.221l-1.089-.833a15.059,15.059,0,0,0-2.224,4.427,1.964,1.964,0,0,0,.773,2.211C225.554,288.92,226.518,288.812,227.4,287.656Z"/>
      <path d="M223.858,273.047l1.36-1.984-2.353-1.613,1-2.741,2.954,2.024,2.355-3.438,1.776,1.217-2.355,3.437,5.307,3.636c1.638,1.123,2.493.963,3.568-.6l.49-.716,1.753,1.2-.885,1.292c-1.786,2.607-3.709,3.087-6.131,1.428l-5.7-3.905-1.359,1.984Z"/>
      <path d="M226.272,259.972l1.643-2.6,2.247,1.419-1.643,2.6ZM230.8,262.7l1.524-2.412,11.258,7.111-1.524,2.413Z"/>
      <path d="M240.932,248.34a6.583,6.583,0,0,1,4.99.846l.972.553a6.145,6.145,0,0,1,2.442,8.827,6.444,6.444,0,0,1-3.856,3.212,6.263,6.263,0,0,1-4.969-.77l-1-.567a6.437,6.437,0,0,1-3.246-3.909,7.1,7.1,0,0,1,4.664-8.192Zm-.3,9.518,1.483.843a3.687,3.687,0,1,0,3.64-6.392l-1.482-.844c-2.018-1.149-4.141-.812-5.289,1.2S238.613,256.709,240.63,257.858Z"/>
      <path d="M242.147,243.2l1.043-2.136,2.5.938a5.75,5.75,0,0,1-.456-5.823c1.19-2.438,3.546-3.186,6.06-1.959l8.117,3.962-1.251,2.563-7.716-3.765a2.471,2.471,0,0,0-3.616,1.16,3.752,3.752,0,0,0,1.486,4.926l7.036,3.435-1.239,2.538Z"/>
    </g>
  </g>
</svg>
