<svg xmlns="http://www.w3.org/2000/svg" width="529.87" height="263.959" viewBox="0 0 529.87 263.959">
  <title>Asset 11</title>
  <g>
    <g>
      <path d="M101.334,33.194c9.552-19.393,35.049-23.223,56.624-24.58,20.033-1.26,41.765-2.079,58.31,9.287,16.853,11.579,24.069,34.328,19.9,54.345s-18.352,37.036-35.776,47.735a268.513,268.513,0,0,0,74.849-3.347c9.74-1.822,20.222-4.105,29.212.064s13.6,18.159,5.579,23.984a569.416,569.416,0,0,1-104.382,6.729c21.113,43.7,82.24,54.139,107.427,95.627-15.462-1.392-24.684,20.707-40.208,20.919-5.149.071-9.955-2.383-14.516-4.775l-82.834-43.445c-4.276-2.243-8.725-4.535-13.548-4.78-6.34-.323-12.252,2.916-17.77,6.056L101.9,241.079C90.465,247.588,78.2,254.3,65.061,253.6s-26.553-12.3-23.987-25.207l53.04-42.465c9.865-7.9,20.691-17.829,19.948-30.444L.05,158.529Q.025,146.943,0,135.356c27.373,1.126,79.318,10.305,94.788-16.024C108.178,96.542,89,58.235,101.334,33.194Z" fill="#bdccd4"/>
      <path d="M317.042,25.278C326.6,5.886,352.091,2.055,373.666.7c20.034-1.26,41.765-2.08,58.31,9.287,16.854,11.578,24.069,34.327,19.9,54.344S433.52,101.367,416.1,112.066a268.557,268.557,0,0,0,74.85-3.347c9.74-1.822,20.222-4.1,29.212.064s13.595,18.159,5.579,23.984A569.51,569.51,0,0,1,421.354,139.5c21.113,43.7,82.239,54.139,107.427,95.627-15.462-1.392-24.685,20.707-40.208,20.919-5.149.07-9.955-2.383-14.516-4.775l-82.835-43.445c-4.276-2.243-8.724-4.535-13.547-4.781-6.34-.323-12.253,2.917-17.771,6.057l-42.293,24.066c-11.438,6.508-23.7,13.223-36.842,12.516s-26.552-12.3-23.986-25.207l53.04-42.464c9.865-7.9,20.69-17.829,19.948-30.444l-114.013,3.049q-.024-11.588-.049-23.174c27.373,1.127,79.318,10.306,94.788-16.024C323.887,88.626,304.707,50.32,317.042,25.278Z" fill="#bdccd4"/>
    </g>
    <g>
      <path d="M355.82,104.367l2.4.091.107-2.852,2.851-.62-.135,3.578,4.165.157-.081,2.152-4.165-.157-.242,6.429c-.074,1.985.518,2.624,2.418,2.7l.867.033-.08,2.125-1.565-.06c-3.16-.119-4.591-1.488-4.481-4.423l.26-6.905-2.4-.09Z"/>
      <path d="M378.189,104.794a6.583,6.583,0,0,1,2.374,4.469l.154,1.108a6.142,6.142,0,0,1-5.5,7.316,6.436,6.436,0,0,1-4.9-1.1,6.257,6.257,0,0,1-2.421-4.4l-.158-1.136a6.428,6.428,0,0,1,1.116-4.955,7.1,7.1,0,0,1,9.333-1.3Zm-7.722,5.565.235,1.69a3.686,3.686,0,1,0,7.284-1.016l-.236-1.689c-.32-2.3-1.881-3.775-4.179-3.454S370.147,108.061,370.467,110.359Z"/>
      <path d="M396.815,114.148c-3.839,2.513-6.27,2.833-7.3,1.265-.675-1.03-.261-2.237,1.3-3.69l-.031-.047c-1.392.376-2.51.406-3.077-.46-.551-.843-.108-1.9.842-3.159a4.021,4.021,0,0,1-3.933-1.872l-.2-.305c-1.47-2.247-.469-5.008,2.363-6.862a6.784,6.784,0,0,1,2.033-.929,3.645,3.645,0,0,0,1.35-1.921,2.477,2.477,0,0,0-.483-1.556l1.732-1.134a3.071,3.071,0,0,1,.785.791c.751,1.147.19,2.283-1.451,3.658a3.717,3.717,0,0,1,3.368,1.774l.169.257c1.455,2.224.579,4.871-2.417,6.832a10.189,10.189,0,0,1-1.94.968c-.753.894-.8,1.39-.612,1.671.384.585,1.917.016,3.719-1.163l.4-.261c3.909-2.558,6.08-2.408,7.244-.629C401.884,109.225,400.56,111.7,396.815,114.148Zm-4.765-12.695-.291-.445c-.812-1.24-2.268-1.525-3.931-.437-1.685,1.1-2,2.513-1.187,3.753l.291.445c.811,1.241,2.245,1.54,3.93.437C392.524,104.118,392.862,102.693,392.05,101.453Zm6.733,7.529c-.537-.819-1.944-.467-4.471,1.188l-.352.229c-2.247,1.471-3,2.73-2.5,3.479.506.772,1.959.49,4.488-1.165C398.377,111.12,399.334,109.824,398.783,108.982Z"/>
      <path d="M408.757,91.679a3.929,3.929,0,0,1,1.11,3.31,6.546,6.546,0,0,1-2.136,3.966c-3.141,3.109-6.522,2.638-9.2-.066l-.63-.637c-2.7-2.724-3.055-6.385-.232-9.18,2.963-2.933,6.3-2.263,8.9.361l.806.815L400.46,97.1l.138.139c1.653,1.67,3.63,2,5.559.087,1.571-1.554,1.6-3.117.752-3.972l-.04-.04,1.77-1.752Zm-9.438,4.226,5.01-4.96c-1.654-1.551-3.432-1.917-5.1-.263C397.636,92.257,397.765,94.176,399.319,95.905Z"/>
      <path d="M403.505,83.81l1.688-1.714-2.033-2,1.464-2.523,2.551,2.511,2.924-2.969,1.534,1.511-2.924,2.97,4.584,4.513c1.414,1.393,2.284,1.386,3.619.031l.609-.618,1.514,1.492-1.1,1.116c-2.217,2.252-4.194,2.386-6.286.325l-4.922-4.847-1.688,1.714Z"/>
      <path d="M407.623,71.022l1.935-2.059,6.136,5.764a5.576,5.576,0,0,1,1.355-5.365c1.858-1.977,4.331-1.995,6.369-.08L430,75.467l-1.953,2.079-6.259-5.879a2.471,2.471,0,0,0-3.8.04,3.752,3.752,0,0,0-.037,5.146l5.708,5.362-1.933,2.058Z"/>
      <path d="M437.519,60.588a3.932,3.932,0,0,1,1.386,3.2,6.555,6.555,0,0,1-1.794,4.131c-2.867,3.363-6.274,3.178-9.168.711l-.682-.581c-2.916-2.486-3.581-6.1-1.005-9.125,2.7-3.172,6.087-2.787,8.9-.392l.873.744-6.315,7.408.15.126c1.788,1.524,3.784,1.683,5.544-.382,1.433-1.682,1.329-3.241.414-4.021l-.043-.036,1.615-1.9ZM428.474,65.6l4.572-5.365c-1.779-1.4-3.581-1.619-5.105.169C426.49,62.1,426.78,64,428.474,65.6Z"/>
      <path d="M432.532,51.91l1.432-1.9,2.747,1.794c-1.029-1.794-1.419-3.877,0-5.752.253-.335.5-.569.742-.843l2.187,1.653a5.6,5.6,0,0,0-.87.92,4.234,4.234,0,0,0-.911,3.063,3.55,3.55,0,0,0,1.379,2.584l5.626,4.249-1.7,2.255Z"/>
    </g>
    <g>
      <path d="M132.529,27.858l2.357-.314.564,2.549a5.477,5.477,0,0,1,4.463-3.555,4.834,4.834,0,0,1,4.078,1.178,6.555,6.555,0,0,1,2.021,4.161l.231,1.746a6.518,6.518,0,0,1-.89,4.548A4.913,4.913,0,0,1,141.7,40.4a5.365,5.365,0,0,1-4.9-1.886l.865,6.514-2.8.372Zm4.3,2.418a4.165,4.165,0,0,0-.742,3.118l.18,1.357a4.068,4.068,0,0,0,1.531,2.815,3.574,3.574,0,0,0,2.76.819c2.19-.291,3.205-2.2,2.908-4.448l-.215-1.608c-.305-2.3-1.778-3.826-3.968-3.535A3.6,3.6,0,0,0,136.828,30.276Z"/>
      <path d="M148.792,19.834l2.843-.237,1.607,19.284-2.842.236Z"/>
      <path d="M160.548,38.7c-2.489.065-4-1.212-4.062-3.449a3.4,3.4,0,0,1,2.039-3.382c1.242-.676,3.356-1.178,6.734-1.489l-.021-.811c-.044-1.706-.936-2.662-2.922-2.611-1.874.048-2.915.942-2.876,2.425l0,.168-2.545.065-.007-.251c-.063-2.461,1.618-4.575,5.449-4.674,3.718-.1,5.557,1.759,5.639,4.891l.135,5.257c.036,1.371.378,1.641,1.636,1.637L169.8,38.3l-1.035.026c-1.874.049-2.95-.427-3.253-2.434A5.777,5.777,0,0,1,160.548,38.7Zm.844-1.98c2.1-.055,3.985-1.754,3.942-3.432l-.036-1.37a15.044,15.044,0,0,0-4.842,1.049,1.966,1.966,0,0,0-1.236,1.989C159.249,36.077,159.939,36.759,161.392,36.722Z"/>
      <path d="M171.269,24.928l2.961.19,3.24,10.609.057,0,4.435-10.114,2.847.184-5.967,12.566c-1.615,3.316-2.851,4.666-6.23,4.448l-1.145-.074.139-2.149.531.034c1.787.115,2.712-.33,3.329-1.636l.289-.57Z"/>
      <path d="M188.241,26.37l2.824.41-1.912,13.175-2.824-.41Zm.647-5.247,3.046.441-.381,2.63-3.046-.442Z"/>
      <path d="M196.223,27.561l2.313.549-.371,2.644a5.753,5.753,0,0,1,5.585-1.718c2.639.627,3.884,2.764,3.236,5.484L204.9,43.31l-2.777-.661,1.99-8.353a2.472,2.472,0,0,0-1.923-3.276,3.754,3.754,0,0,0-4.484,2.527l-1.813,7.619-2.748-.654Z"/>
      <path d="M211.95,50.58c-4.31-1.569-6.023-3.324-5.382-5.085.421-1.156,1.634-1.548,3.731-1.171l.018-.053c-1.135-.89-1.827-1.766-1.473-2.739.344-.946,1.457-1.225,3.033-1.218a4.024,4.024,0,0,1-.858-4.27l.125-.341c.919-2.523,3.729-3.375,6.909-2.218a6.788,6.788,0,0,1,1.961,1.072,3.651,3.651,0,0,0,2.346-.069,2.486,2.486,0,0,0,.957-1.319l1.944.708a3.022,3.022,0,0,1-.163,1.1c-.469,1.289-1.713,1.52-3.8,1.029a3.717,3.717,0,0,1,.595,3.759l-.1.289c-.908,2.5-3.551,3.38-6.915,2.156a10.177,10.177,0,0,1-1.937-.974c-1.167-.067-1.59.2-1.7.511-.239.657,1.134,1.544,3.158,2.28l.447.163c4.389,1.6,5.569,3.426,4.841,5.423C218.925,51.69,216.154,52.11,211.95,50.58Zm5.314-1.518c.335-.92-.791-1.836-3.628-2.869l-.394-.144c-2.524-.918-3.979-.763-4.286.078-.315.867.782,1.861,3.619,2.894C215.309,50.016,216.92,50.007,217.264,49.062Zm2-9.9.181-.5c.506-1.393-.138-2.728-2-3.408-1.891-.688-3.208-.1-3.716,1.3l-.181.5c-.507,1.393.112,2.719,2,3.408C217.41,41.138,218.753,40.556,219.261,39.163Z"/>
    </g>
  </g>
</svg>
